<?xml version="1.0" encoding="utf-8"?>
<!DOCTYPE svg PUBLIC "-//W3C//DTD SVG 1.1//EN" "http://www.w3.org/Graphics/SVG/1.1/DTD/svg11.dtd">
<svg version="1.1" xmlns="http://www.w3.org/2000/svg" xmlns:xlink="http://www.w3.org/1999/xlink" xmlns:ev="http://www.w3.org/2001/xml-events" width="344.5px" height="371.85px" overflow="visible" viewBox="0.0 0.0 344.5 371.85" enable-background="new 0.0 0.0 344.5 371.85">
	<defs/>
	<rect width="344.5px" height="371.85px" x="0px" y="0px" fill="#FFFFFF"/>
	<g>
		<g transform="matrix(1.0 0.0 0.0 1.0 0.0 0.0)">
			<path fill="#BE574A" stroke-linecap="round" stroke-linejoin="round" d="M 142.65 286.85 L 143.0 283.3 C 147.23334 282.96664 151.01668 283.43332 154.35 284.7 C 158.01668 286.1 160.71667 288.31668 162.45 291.35 L 161.45 297.05 L 159.25 306.95 C 158.31667 311.21667 157.31667 317.56668 156.25 326.0 C 155.18333 332.56668 153.66667 336.38336 151.7 337.45 C 146.8 338.21667 143.6 332.35 142.1 319.85 C 140.76668 309.05 140.95001 298.05 142.65 286.85 Z M 151.7 337.45 L 151.65 337.5 Z"/>
			<path fill="#7E7B8A" stroke-linecap="round" stroke-linejoin="round" d="M 30.95 139.1 L 29.45 130.4 C 28.883333 130.23332 28.05 131.11665 26.95 133.05 C 25.95 134.78333 24.916668 136.99998 23.85 139.7 C 24.583334 130.46666 25.866667 122.45 27.7 115.65 C 29.5 109.01666 31.216665 105.68333 32.85 105.65 C 34.716667 105.61667 37.56667 108.36667 41.4 113.9 C 44.7 118.7 46.716667 122.23333 47.45 124.5 C 47.65 123.76667 47.933334 123.3 48.3 123.1 C 50.6 122.13333 55.399998 124.85 62.7 131.25 C 68.63333 136.41667 72.98333 140.81667 75.75 144.45 C 82.71667 145.58333 88.666664 148.01666 93.6 151.75 C 98.46667 155.48334 101.15 159.6 101.65 164.1 C 99.88333 166.93333 98.71667 169.23334 98.15 171.0 L 89.0 170.2 C 86.566666 170.26666 85.2 170.61667 84.9 171.25 C 84.73334 171.55 84.65 171.93333 84.65 172.4 C 84.683334 175.2 87.98334 180.0 94.55 186.8 C 94.450005 187.56667 94.433334 188.61667 94.5 189.95 L 85.3 189.2 C 84.433334 187.2 83.816666 185.41667 83.45 183.85 L 82.85 189.35 L 78.05 190.2 C 76.11667 190.63333 74.6 191.1 73.5 191.6 C 71.46667 192.5 69.5 193.61667 67.6 194.95 C 52.766663 190.28333 42.099995 178.18332 35.6 158.65 C 33.666668 152.84999 32.11667 146.33333 30.95 139.1 Z"/>
			<path fill="#3B4043" stroke-linecap="round" stroke-linejoin="round" d="M 121.15 229.7 L 120.75 225.55 L 122.8 226.65 L 124.75 230.65 C 126.183334 233.48332 127.316666 235.41666 128.15 236.45 L 122.45 235.65 C 121.95 234.65 121.51666 232.66666 121.15 229.7 Z"/>
			<path fill="#7E7B8A" stroke-linecap="round" stroke-linejoin="round" d="M 264.55 253.85 C 266.28333 251.61667 268.03333 249.13333 269.8 246.4 L 271.75 246.3 L 274.85 245.8 L 282.1 246.9 C 282.23334 248.76666 279.65 250.46666 274.35 252.0 C 270.08334 253.23334 266.81668 253.85 264.55 253.85 Z"/>
			<path fill="#686168" stroke-linecap="round" stroke-linejoin="round" d="M 50.15 230.6 C 61.65 220.83333 69.96667 215.33333 75.1 214.1 C 78.433334 213.46666 82.46667 214.34999 87.2 216.75 C 90.96667 223.01666 96.96667 226.61667 105.2 227.55 C 101.53333 230.01666 98.566666 233.06667 96.3 236.7 C 93.0 241.93333 91.816666 247.53334 92.75 253.5 L 93.7 257.65 C 91.299995 256.21667 89.58333 255.25002 88.55 254.75 C 84.950005 253.01666 81.73334 251.76666 78.9 251.0 C 73.66667 254.26666 67.200005 257.23334 59.5 259.9 C 54.933334 261.5 48.183334 263.51666 39.25 265.95 C 35.383335 265.35 32.033337 263.66666 29.2 260.9 C 26.566668 258.3333 24.75 255.23332 23.75 251.6 C 27.583334 249.33333 36.383335 242.33333 50.15 230.6 Z"/>
			<path fill="#686168" stroke-linecap="round" stroke-linejoin="round" d="M 107.55 282.4 C 103.11667 282.96667 98.333336 282.88333 93.2 282.15 C 90.566666 278.98334 89.0 274.95 88.5 270.05 C 88.03333 265.68332 88.45 262.28333 89.75 259.85 L 89.05 256.75 L 88.55 254.75 C 89.583336 255.25 91.3 256.21667 93.7 257.65 C 94.9 261.55 96.96667 265.53333 99.9 269.6 C 99.433334 267.73334 99.55 264.9 100.25 261.1 C 103.816666 263.53333 107.23333 266.28333 110.5 269.35 C 113.933334 272.55 116.65 275.5833 118.65 278.45 C 116.083336 280.48334 112.38334 281.8 107.55 282.4 Z"/>
			<path fill="#3B4043" stroke-linecap="round" stroke-linejoin="round" d="M 296.7 136.75 C 303.9 132.15001 309.55 129.03334 313.65 127.4 C 313.31665 130.86667 311.8333 135.81667 309.2 142.25 C 306.26666 143.08333 300.85 146.06667 292.95 151.2 C 285.08334 156.33333 280.45 159.86667 279.05 161.8 L 277.0 156.95 L 276.05 154.95 C 277.71664 152.95 279.3333 150.76666 280.9 148.4 C 284.03333 145.36667 289.3 141.48334 296.7 136.75 Z"/>
			<path fill="#3B4043" stroke-linecap="round" stroke-linejoin="round" d="M 169.6 125.95 C 166.63333 128.21667 163.23332 131.18335 159.4 134.85 C 156.33333 129.95 150.93333 123.49999 143.2 115.5 C 135.93333 107.933334 130.03334 102.48334 125.5 99.15 C 124.566666 92.55 124.4 87.833336 125.0 85.0 C 132.40001 88.23333 141.38335 94.88333 151.95 104.95 C 161.88333 114.416664 167.76666 121.416664 169.6 125.95 Z"/>
			<path fill="#B43A3E" stroke-linecap="round" stroke-linejoin="round" d="M 171.55 244.3 L 175.45 247.9 L 175.0 252.25 C 174.8 255.21667 174.90001 256.86667 175.3 257.2 C 175.96667 257.73334 178.23334 256.36667 182.1 253.1 C 186.7 256.4 191.63333 259.46664 196.9 262.3 C 201.86667 264.93332 206.66667 267.13333 211.3 268.9 L 211.25 270.0 L 210.45 271.5 L 208.25 274.45 C 203.21666 270.81668 196.91666 268.11667 189.35 266.35 C 181.78334 264.61667 175.68333 264.45 171.05 265.85 C 169.38333 260.88333 169.55 253.7 171.55 244.3 Z"/>
			<path fill="#7E7B8A" stroke-linecap="round" stroke-linejoin="round" d="M 320.4 90.2 C 332.66666 84.066666 339.69998 81.7 341.5 83.1 C 343.4 84.63333 343.86667 89.26666 342.9 97.0 C 341.96667 104.799995 339.78336 114.033325 336.35 124.7 C 327.85 150.96667 316.36667 173.48334 301.9 192.25 C 295.76666 200.15001 289.53333 206.70001 283.2 211.9 C 285.0 202.23332 285.38333 192.81665 284.35 183.65 C 288.21667 179.95 292.61667 173.93333 297.55 165.6 C 302.18332 157.76668 306.06665 149.98334 309.2 142.25 C 311.83334 135.81667 313.31668 130.86667 313.65 127.4 C 309.55 129.03334 303.9 132.15001 296.7 136.75 C 289.30002 141.48334 284.03336 145.36667 280.9 148.4 C 283.43335 144.43333 285.48334 140.23334 287.05 135.8 C 290.05 127.23333 290.9 118.2 289.6 108.7 C 298.13333 102.333336 308.4 96.16667 320.4 90.2 Z"/>
			<path fill="#FFFFFF" stroke-linecap="round" stroke-linejoin="round" d="M 182.1 253.1 C 178.23334 256.36667 175.96667 257.73334 175.3 257.2 C 174.9 256.86667 174.79999 255.21666 175.0 252.25 L 175.45 247.9 C 177.05 249.26666 179.26668 251.0 182.1 253.1 Z"/>
			<path fill="#BE574A" stroke-linecap="round" stroke-linejoin="round" d="M 239.05 48.5 C 243.55 54.033333 246.96667 60.85 249.3 68.95 C 251.5 76.61666 252.51666 84.58333 252.35 92.85 C 252.15001 101.11667 250.8 108.63334 248.3 115.4 C 245.63333 122.53333 241.95 128.0 237.25 131.8 C 230.84999 129.66667 224.56665 123.36667 218.4 112.9 C 212.23332 102.433334 208.9 92.416664 208.4 82.85 C 205.13333 84.78333 201.76666 90.11667 198.3 98.85 C 194.23334 108.98334 193.06667 117.88334 194.8 125.55 C 188.43333 120.083336 184.66667 113.23334 183.5 105.0 C 182.76666 99.53333 183.2 91.63333 184.8 81.3 C 186.86667 68.166664 187.73334 58.949997 187.4 53.65 C 186.76666 43.449997 183.0 34.83333 176.1 27.8 C 178.16667 27.8 181.06667 28.716665 184.8 30.55 C 188.96667 32.583332 192.56668 35.066666 195.6 38.0 C 194.83333 31.3 194.91666 24.899998 195.85 18.8 C 196.85 11.9 198.86667 5.8999996 201.9 0.8 C 200.33333 10.866667 203.25 19.183334 210.65 25.75 C 215.91667 30.45 224.3 34.716667 235.8 38.55 C 246.96667 42.283333 255.73334 49.2 262.1 59.3 C 264.26666 62.73333 265.93332 65.916664 267.1 68.85 C 268.53333 72.51666 269.63333 76.83333 270.4 81.8 C 267.93335 75.433334 263.21667 68.63333 256.25 61.4 C 249.58333 54.5 243.84999 50.2 239.05 48.5 Z"/>
			<path fill="#535E67" stroke-linecap="round" stroke-linejoin="round" d="M 309.2 142.25 C 306.06668 149.98334 302.18335 157.76668 297.55 165.6 C 292.61667 173.93333 288.21667 179.95 284.35 183.65 C 283.51666 176.01666 281.75 168.73334 279.05 161.8 C 280.44998 159.86667 285.0833 156.33333 292.95 151.2 C 300.85 146.06667 306.26666 143.08333 309.2 142.25 Z"/>
			<path fill="#535E67" stroke-linecap="round" stroke-linejoin="round" d="M 301.9 192.25 C 307.0 194.18333 313.68335 197.93333 321.95 203.5 C 332.11667 210.33333 339.36667 216.71666 343.7 222.65 C 334.5 217.81667 323.25 215.36667 309.95 215.3 C 297.11667 215.26666 287.43332 217.34999 280.9 221.55 C 281.9 218.05 282.66666 214.83333 283.2 211.9 C 289.53336 206.7 295.7667 200.15 301.9 192.25 Z"/>
			<path fill="#535E67" stroke-linecap="round" stroke-linejoin="round" d="M 125.5 99.15 C 130.03334 102.48334 135.93333 107.933334 143.2 115.5 C 150.93333 123.5 156.33333 129.95 159.4 134.85 C 153.03334 140.91667 147.95001 146.61667 144.15 151.95 C 139.38333 144.65 135.26666 135.75 131.8 125.25 C 128.8 116.316666 126.700005 107.61667 125.5 99.15 Z"/>
			<path fill="#871415" stroke-linecap="round" stroke-linejoin="round" d="M 211.25 270.0 C 211.15001 272.6 211.28334 274.01666 211.65 274.25 C 212.05 274.51666 213.95001 273.41666 217.35 270.95 C 220.18333 271.78336 222.55 272.2667 224.45 272.4 C 219.35 274.2 213.20001 275.48334 206.0 276.25 L 208.25 274.45 L 210.45 271.5 L 211.25 270.0 Z"/>
			<path fill="#FFFFFF" stroke-linecap="round" stroke-linejoin="round" d="M 211.65 274.25 C 211.28334 274.01666 211.15001 272.6 211.25 270.0 L 211.3 268.9 L 217.35 270.95 C 213.95 273.41666 212.04999 274.51666 211.65 274.25 Z"/>
			<path fill="#3B4043" stroke-linecap="round" stroke-linejoin="round" d="M 91.35 215.05 C 95.88333 219.71667 101.46667 223.5 108.1 226.4 C 107.53333 226.53334 106.88333 226.76668 106.15 227.1 C 105.85 227.26668 105.53333 227.41667 105.2 227.55 C 96.96667 226.61667 90.96667 223.01666 87.2 216.75 C 84.833336 212.84999 83.36667 208.03333 82.8 202.3 C 84.63334 206.86667 87.48334 211.11667 91.35 215.05 Z"/>
			<path fill="#7E7B8A" stroke-linecap="round" stroke-linejoin="round" d="M 91.25 199.3 C 88.78333 196.0 86.8 192.63333 85.3 189.2 L 94.5 189.95 C 94.566666 192.25 94.86667 194.88333 95.4 197.85 C 95.9 200.78334 96.5 203.35 97.2 205.55 C 95.566666 204.58334 93.583336 202.50002 91.25 199.3 Z"/>
			<path fill="#686168" stroke-linecap="round" stroke-linejoin="round" d="M 107.3 198.6 C 102.5 194.56667 98.25 190.63333 94.55 186.8 C 87.98333 180.0 84.68333 175.2 84.65 172.4 C 87.51666 177.09999 95.83333 184.34999 109.6 194.15 C 123.83333 204.28334 133.98334 209.88335 140.05 210.95 L 125.9 211.7 C 124.6 211.16666 122.933334 210.24998 120.9 208.95 L 119.75 208.15 C 116.049995 205.65 111.899994 202.46666 107.3 198.6 Z"/>
			<path fill="#686168" stroke-linecap="round" stroke-linejoin="round" d="M 124.75 230.65 L 122.8 226.65 L 120.75 225.55 C 115.683334 223.38333 111.46667 221.16666 108.1 218.9 C 111.7 220.46666 117.299995 222.01666 124.9 223.55 C 131.53334 224.88333 136.28334 225.59999 139.15 225.7 C 140.51666 233.43333 142.53333 238.91667 145.2 242.15 C 142.4 240.45 139.43333 239.13333 136.3 238.2 C 134.0 237.5 131.28333 236.91667 128.15 236.45 C 127.316666 235.41666 126.183334 233.48332 124.75 230.65 Z"/>
			<path fill="#686168" stroke-linecap="round" stroke-linejoin="round" d="M 267.15 153.35 C 273.51666 149.75 280.15 143.9 287.05 135.8 C 285.48334 140.23334 283.43335 144.43333 280.9 148.4 C 279.3333 150.76666 277.71664 152.95 276.05 154.95 L 277.0 156.95 C 272.06668 165.51666 263.48334 169.46666 251.25 168.8 C 241.84999 168.3 233.65 165.86667 226.65 161.5 C 242.68333 162.23334 256.18335 159.51668 267.15 153.35 Z"/>
			<path fill="#686168" stroke-linecap="round" stroke-linejoin="round" d="M 260.2 258.8 L 264.55 253.85 C 266.81668 253.85 270.08334 253.23334 274.35 252.0 C 279.65 250.46666 282.23334 248.76666 282.1 246.9 C 284.03333 247.36667 285.59998 247.90001 286.8 248.5 C 288.03333 249.13333 288.65 249.73334 288.65 250.3 C 288.65 251.23334 285.28333 252.73334 278.55 254.8 C 271.65 256.90002 265.53333 258.23334 260.2 258.8 Z"/>
			<path fill="#3B4043" stroke-linecap="round" stroke-linejoin="round" d="M 92.75 253.5 C 93.183334 249.63333 95.76667 244.95 100.5 239.45 C 105.333336 233.81667 109.950005 230.28334 114.35 228.85 C 112.95 230.68333 112.183334 232.71666 112.05 234.95 C 111.950005 236.65 112.200005 238.08333 112.8 239.25 C 117.23333 237.88333 123.18333 239.23334 130.65 243.3 C 138.65 247.66667 147.9 254.91667 158.4 265.05 C 155.3 263.31668 150.78334 262.65002 144.85 263.05 C 139.68333 263.44998 134.43333 264.53333 129.1 266.3 C 120.933334 266.46664 115.0 264.28333 111.3 259.75 C 108.433334 256.21667 107.166664 251.76668 107.5 246.4 C 105.76667 247.59999 104.23334 249.65 102.9 252.55 C 101.73334 255.08334 100.850006 257.93335 100.25 261.1 C 99.549995 264.9 99.43333 267.73334 99.9 269.6 C 96.96667 265.53333 94.9 261.55 93.7 257.65 L 92.75 253.5 Z"/>
			<path fill="#7E7B8A" stroke-linecap="round" stroke-linejoin="round" d="M 144.85 263.05 C 150.78334 262.65 155.3 263.31665 158.4 265.05 C 159.73332 265.81668 160.76666 266.78336 161.5 267.95 C 164.03334 272.18332 164.35 279.9833 162.45 291.35 C 160.71667 288.31665 158.01668 286.09998 154.35 284.7 C 151.01668 283.43332 147.23334 282.96664 143.0 283.3 C 143.33333 277.96664 142.51666 273.9833 140.55 271.35 C 138.38333 268.38333 134.56667 266.69998 129.1 266.3 C 134.43333 264.53333 139.68333 263.44998 144.85 263.05 Z"/>
			<path fill="#E67372" stroke-linecap="round" stroke-linejoin="round" d="M 189.3 276.7 C 183.76666 276.26666 179.7 275.25 177.1 273.65 C 174.23334 271.81665 172.21667 269.21664 171.05 265.85 C 175.68333 264.45 181.78334 264.61667 189.35 266.35 C 196.91667 268.11667 203.21667 270.81668 208.25 274.45 L 206.0 276.25 C 199.90001 276.91666 194.33334 277.06665 189.3 276.7 Z"/>
			<path fill="#686168" stroke-linecap="round" stroke-linejoin="round" d="M 143.0 283.3 C 139.26666 283.56668 135.66666 284.38336 132.2 285.75 C 128.7 287.15 125.799995 288.94998 123.5 291.15 L 122.65 286.65 C 121.95 283.98334 120.61666 281.25 118.65 278.45 C 116.65 275.58334 113.933334 272.55002 110.5 269.35 C 107.23333 266.28333 103.816666 263.53333 100.25 261.1 C 100.85 257.93335 101.73333 255.08334 102.9 252.55 C 104.23334 249.65 105.76667 247.59999 107.5 246.4 C 107.166664 251.76666 108.433334 256.21667 111.3 259.75 C 115.0 264.28333 120.933334 266.46664 129.1 266.3 C 134.56667 266.69998 138.38333 268.38333 140.55 271.35 C 142.51666 273.98334 143.33333 277.96667 143.0 283.3 Z"/>
			<path fill="#8E3D35" stroke-linecap="round" stroke-linejoin="round" d="M 126.05 309.0 L 123.5 291.15 C 125.799995 288.95 128.7 287.15002 132.2 285.75 C 135.66666 284.38333 139.26666 283.56665 143.0 283.3 L 142.65 286.85 C 140.95 298.05 140.76666 309.05 142.1 319.85 C 143.6 332.35 146.78334 338.23334 151.65 337.5 C 148.98332 338.86667 145.78333 338.75 142.05 337.15 C 137.95 335.38333 134.66666 332.3 132.2 327.9 C 129.63333 323.3333 127.583336 317.03333 126.05 309.0 Z"/>
			<path fill="#686168" stroke-linecap="round" stroke-linejoin="round" d="M 208.1 306.45 L 212.7 320.2 C 209.36667 321.26666 206.3 322.88333 203.5 325.05 C 200.8 327.11667 198.71667 329.4167 197.25 331.95 C 190.75 319.85 184.86667 310.03333 179.6 302.5 C 190.03334 303.9 201.05 303.38333 212.65 300.95 L 210.85 303.3 L 208.1 306.45 Z"/>
			<path fill="#8E3D35" stroke-linecap="round" stroke-linejoin="round" d="M 212.05 361.85 C 209.01666 354.51666 204.08333 344.55 197.25 331.95 C 198.71666 329.41666 200.79999 327.11664 203.5 325.05 C 206.3 322.88333 209.36667 321.26666 212.7 320.2 C 215.8 330.36667 217.38333 340.36667 217.45 350.2 C 217.41666 358.0 218.49998 363.31665 220.7 366.15 C 222.36667 368.28333 224.63333 368.96667 227.5 368.2 C 225.06667 370.96667 222.38333 371.76666 219.45 370.6 C 216.48334 369.4 214.01668 366.48334 212.05 361.85 Z"/>
			<path fill="#8E3D35" stroke-linecap="round" stroke-linejoin="round" d="M 89.05 256.75 L 89.75 259.85 C 88.450005 262.28333 88.03334 265.68332 88.5 270.05 C 89.0 274.94998 90.566666 278.9833 93.2 282.15 C 87.23333 281.31665 82.183334 279.86664 78.05 277.8 C 73.65 275.56668 71.38333 273.1 71.25 270.4 C 71.15 267.46667 73.63333 264.68335 78.7 262.05 C 84.4 259.61667 87.850006 257.85 89.05 256.75 Z"/>
			<path fill="#7E7B8A" stroke-linecap="round" stroke-linejoin="round" d="M 212.7 320.2 L 208.1 306.45 L 210.85 303.3 L 212.65 300.95 C 217.71666 299.88333 222.66666 298.44998 227.5 296.65 C 228.76666 299.71667 229.95 303.61667 231.05 308.35 C 232.21667 313.4167 233.08334 318.65002 233.65 324.05 C 230.65 321.41666 227.21666 319.81665 223.35 319.25 C 219.91667 318.71667 216.36667 319.03336 212.7 320.2 Z"/>
			<path fill="#3B4043" stroke-linecap="round" stroke-linejoin="round" d="M 343.7 222.65 C 336.83334 221.48332 329.85 221.76666 322.75 223.5 C 316.41666 225.03334 310.98334 227.43333 306.45 230.7 C 302.58334 229.33333 297.98334 228.05 292.65 226.85 C 287.21667 225.61667 282.96667 224.9 279.9 224.7 L 280.9 221.55 C 287.43335 217.35 297.1167 215.26668 309.95 215.3 C 323.25 215.36667 334.5 217.81667 343.7 222.65 Z"/>
			<path fill="#7E7B8A" stroke-linecap="round" stroke-linejoin="round" d="M 292.65 226.85 C 297.98334 228.05 302.58334 229.33333 306.45 230.7 C 310.58334 232.23334 312.65 233.41667 312.65 234.25 C 312.65 234.75 311.83334 235.36667 310.2 236.1 C 304.53336 237.36667 297.65002 238.58333 289.55 239.75 L 272.6 241.6 C 275.56665 236.2 277.99997 230.56667 279.9 224.7 C 282.96667 224.9 287.21667 225.61667 292.65 226.85 Z"/>
			<path fill="#686168" stroke-linecap="round" stroke-linejoin="round" d="M 271.75 246.3 L 269.8 246.4 L 272.6 241.6 L 289.55 239.75 C 297.65 238.58333 304.53333 237.36667 310.2 236.1 C 307.80002 237.23334 304.0167 238.55 298.85 240.05 L 285.5 243.55 L 274.85 245.8 L 271.75 246.3 Z"/>
			<path fill="#BE574A" stroke-linecap="round" stroke-linejoin="round" d="M 220.7 366.15 C 218.5 363.31665 217.41667 358.0 217.45 350.2 C 217.38333 340.36667 215.8 330.36667 212.7 320.2 C 216.36667 319.03336 219.91667 318.71667 223.35 319.25 C 227.21666 319.81668 230.65 321.4167 233.65 324.05 C 234.61667 332.91666 234.73334 340.93332 234.0 348.1 C 233.09999 356.5 231.06665 363.03333 227.9 367.7 L 227.5 368.2 C 224.63333 368.96667 222.36667 368.28333 220.7 366.15 Z"/>
			<path fill="#8E3D35" stroke-linecap="round" stroke-linejoin="round" d="M 16.0 273.45 C 12.7 275.15 9.866667 276.13333 7.5 276.4 C 4.9333334 276.7 3.1666665 276.11667 2.2 274.65 C 1.7 273.91666 1.3166666 272.93332 1.05 271.7 C 2.95 267.66666 5.466667 264.16666 8.6 261.2 C 11.766667 258.2 15.766667 255.56668 20.6 253.3 L 23.75 251.6 C 24.75 255.23332 26.566668 258.3333 29.2 260.9 C 32.033333 263.66666 35.38333 265.35 39.25 265.95 L 26.4 269.55 C 22.066666 270.88333 18.599998 272.18335 16.0 273.45 Z"/>
			<path fill="#3B4043" stroke-linecap="round" stroke-linejoin="round" d="M 286.8 248.5 C 285.6 247.90001 284.03336 247.36667 282.1 246.9 L 274.85 245.8 L 285.5 243.55 L 298.85 240.05 C 291.11667 253.28333 282.6 263.21667 273.3 269.85 C 261.1 278.58334 245.16667 283.9 225.5 285.8 C 233.63333 286.23334 242.01666 285.56668 250.65 283.8 C 244.05 289.13333 236.33334 293.41666 227.5 296.65 C 222.66667 298.45 217.71667 299.88336 212.65 300.95 C 201.05 303.38333 190.03334 303.9 179.6 302.5 C 172.46666 301.53333 166.41666 299.71664 161.45 297.05 L 162.45 291.35 C 164.35 279.98334 164.03334 272.18335 161.5 267.95 C 162.16667 268.91666 164.83334 271.68332 169.5 276.25 C 174.09999 280.78333 177.71666 284.18332 180.35 286.45 L 175.7 278.75 C 192.63333 281.58334 211.48334 281.25 232.25 277.75 C 240.81667 276.28333 248.0 274.5 253.8 272.4 C 259.6667 270.3 262.95 268.28333 263.65 266.35 C 264.21667 264.78333 262.73334 262.59998 259.2 259.8 L 260.2 258.8 C 265.53336 258.23334 271.65002 256.90002 278.55 254.8 C 285.28333 252.73334 288.65 251.23334 288.65 250.3 C 288.65 249.73334 288.03333 249.13333 286.8 248.5 Z"/>
			<path fill="#686168" stroke-linecap="round" stroke-linejoin="round" d="M 128.35 173.65 C 123.31667 166.88333 118.66667 158.36667 114.4 148.1 C 110.0 137.63333 106.6 126.73333 104.2 115.4 L 102.8 108.4 C 107.26667 119.96667 112.4 131.33333 118.2 142.5 C 125.433334 156.53334 131.78334 166.21667 137.25 171.55 C 136.34999 172.85 135.29999 174.91667 134.1 177.75 C 132.73334 180.88333 131.96667 183.23334 131.8 184.8 C 129.96667 183.46667 127.55001 181.93333 124.55 180.2 C 125.75 177.5 127.01667 175.31667 128.35 173.65 Z"/>
			<path fill="#7E7B8A" stroke-linecap="round" stroke-linejoin="round" d="M 49.95 211.1 C 56.716667 203.7 62.6 198.31667 67.6 194.95 C 69.5 193.61667 71.46667 192.5 73.5 191.6 C 74.6 191.1 76.11667 190.63333 78.05 190.2 L 82.85 189.35 C 82.45 194.05 82.433334 198.36667 82.8 202.3 C 83.36667 208.03333 84.833336 212.84999 87.2 216.75 C 82.46667 214.34999 78.433334 213.46666 75.1 214.1 C 69.96667 215.33333 61.65 220.83333 50.15 230.6 C 36.38333 242.33333 27.58333 249.33333 23.75 251.6 C 22.949999 248.63333 22.833332 245.75 23.4 242.95 C 24.0 239.95 25.333334 237.4 27.4 235.3 L 34.2 229.95 C 40.066666 222.45 45.316666 216.16667 49.95 211.1 Z"/>
			<path fill="#686168" stroke-linecap="round" stroke-linejoin="round" d="M 23.7 164.6 C 23.1 156.7 23.15 148.4 23.85 139.7 C 24.916668 137.0 25.95 134.78334 26.95 133.05 C 28.050001 131.11667 28.883335 130.23334 29.45 130.4 L 30.95 139.1 C 32.11667 146.33333 33.666668 152.84999 35.6 158.65 C 42.1 178.18333 52.766666 190.28334 67.6 194.95 C 62.6 198.31667 56.716667 203.7 49.95 211.1 C 44.983334 209.16667 40.633335 206.21667 36.9 202.25 C 33.066666 198.21666 30.166666 193.43332 28.2 187.9 C 25.866667 181.4 24.366667 173.63333 23.7 164.6 Z"/>
			<path fill="#7E7B8A" stroke-linecap="round" stroke-linejoin="round" d="M 248.3 115.4 C 250.8 108.63333 252.15001 101.11666 252.35 92.85 C 252.51668 84.58333 251.50002 76.61666 249.3 68.95 C 246.96667 60.85 243.55 54.033333 239.05 48.5 C 243.85 50.2 249.58334 54.5 256.25 61.4 C 263.21667 68.63333 267.93335 75.433334 270.4 81.8 C 269.63333 76.833336 268.53333 72.51667 267.1 68.85 C 265.93335 65.916664 264.2667 62.73333 262.1 59.3 C 268.83334 65.066666 274.61667 72.1 279.45 80.4 C 284.88333 89.66667 288.26666 99.100006 289.6 108.7 C 290.9 118.2 290.05 127.23333 287.05 135.8 C 280.15 143.9 273.51666 149.75 267.15 153.35 C 256.18332 159.51668 242.68332 162.23334 226.65 161.5 C 233.65 165.86667 241.84999 168.3 251.25 168.8 C 263.48334 169.46667 272.06668 165.51668 277.0 156.95 L 279.05 161.8 C 281.75 168.73334 283.51666 176.01666 284.35 183.65 C 285.38333 192.81667 285.0 202.23334 283.2 211.9 C 282.66666 214.83333 281.9 218.05 280.9 221.55 L 279.9 224.7 C 278.0 230.56667 275.56668 236.2 272.6 241.6 L 269.8 246.4 C 268.03333 249.13333 266.28333 251.61667 264.55 253.85 L 260.2 258.8 L 259.2 259.8 C 262.73334 262.6 264.21667 264.78336 263.65 266.35 C 262.95 268.28333 259.6667 270.3 253.8 272.4 C 248.0 274.5 240.81667 276.28333 232.25 277.75 C 211.48334 281.25 192.63333 281.58334 175.7 278.75 C 170.73334 270.81668 165.63333 263.61667 160.4 257.15 C 154.3 249.61667 149.23334 244.61667 145.2 242.15 C 142.53333 238.91667 140.51666 233.43333 139.15 225.7 C 136.28334 225.6 131.53334 224.88335 124.9 223.55 C 117.3 222.01666 111.700005 220.46666 108.1 218.9 C 104.5 216.53334 102.78333 214.86667 102.95 213.9 C 103.11666 213.0 105.11666 212.31667 108.95 211.85 L 120.65 211.4 L 125.9 211.7 L 140.05 210.95 C 133.98334 209.88333 123.833336 204.28333 109.6 194.15 C 95.83333 184.34999 87.51666 177.09999 84.65 172.4 C 84.65 171.93333 84.73334 171.55 84.9 171.25 C 85.2 170.61667 86.566666 170.26666 89.0 170.2 L 98.15 171.0 C 107.78333 172.63333 116.583336 175.7 124.55 180.2 C 127.48333 181.9 129.9 183.43333 131.8 184.8 C 131.96667 183.23334 132.73334 180.88333 134.1 177.75 C 135.3 174.91667 136.35 172.85 137.25 171.55 C 131.78334 166.21667 125.43334 156.53334 118.2 142.5 C 112.4 131.33333 107.26667 119.96666 102.8 108.4 C 99.700005 91.6 98.38334 75.98333 98.85 61.55 C 99.28333 47.45 101.2 39.666668 104.6 38.2 C 108.8 36.36667 121.183334 43.15 141.75 58.55 C 160.95 72.916664 173.61667 83.933334 179.75 91.6 C 181.18333 87.96667 182.86667 84.53333 184.8 81.3 C 183.2 91.63334 182.76666 99.53334 183.5 105.0 C 184.66667 113.23333 188.43333 120.08333 194.8 125.55 C 193.06667 117.88334 194.23334 108.98334 198.3 98.85 C 201.76666 90.11667 205.13333 84.78333 208.4 82.85 C 208.9 92.416664 212.23332 102.433334 218.4 112.9 C 224.56667 123.36667 230.85 129.66667 237.25 131.8 C 241.95 128.0 245.63333 122.53333 248.3 115.4 Z M 144.15 151.95 C 147.95 146.61667 153.03333 140.91667 159.4 134.85 C 163.23332 131.18333 166.63333 128.21666 169.6 125.95 C 167.76668 121.416664 161.88335 114.416664 151.95 104.95 C 141.38333 94.88333 132.4 88.23333 125.0 85.0 C 124.4 87.833336 124.566666 92.55 125.5 99.15 C 126.700005 107.61667 128.8 116.316666 131.8 125.25 C 135.26666 135.75 139.38333 144.65 144.15 151.95 Z M 186.5 174.6 C 183.13333 174.13333 179.8 175.33333 176.5 178.2 C 173.2 181.06667 170.5 185.11667 168.4 190.35 C 166.96666 193.98334 165.95 197.91667 165.35 202.15 C 164.41667 208.58333 164.53334 214.8 165.7 220.8 C 166.63333 225.63333 168.1 229.59999 170.1 232.7 C 172.2 235.9 174.59999 237.7 177.3 238.1 C 181.33334 238.66667 185.08334 236.96667 188.55 233.0 C 191.81667 229.3 194.41667 224.15001 196.35 217.55 C 197.18333 214.68333 197.83333 211.58333 198.3 208.25 C 199.5 199.58333 198.95 191.96666 196.65 185.4 C 194.34999 178.83333 190.96666 175.23334 186.5 174.6 Z M 213.35 172.15 C 211.85 169.68333 210.2 168.51666 208.4 168.65 C 206.63333 168.81667 205.23334 170.26666 204.2 173.0 C 203.16666 175.73334 202.81665 178.93333 203.15 182.6 C 203.48332 186.3 204.4 189.4 205.9 191.9 C 207.4 194.4 209.05 195.56667 210.85 195.4 C 212.61667 195.23332 214.01666 193.78333 215.05 191.05 C 216.08334 188.31667 216.43335 185.11667 216.1 181.45 C 215.76668 177.75 214.85 174.65 213.35 172.15 Z M 254.5 177.35 C 252.40001 179.01668 250.61667 181.38335 249.15 184.45 C 247.68333 187.51666 246.96667 190.38333 247.0 193.05 C 247.0 195.71667 247.73334 197.40001 249.2 198.1 C 250.66666 198.8 252.43332 198.31667 254.5 196.65 C 256.56668 194.98332 258.33334 192.61665 259.8 189.55 C 261.26666 186.48334 262.0 183.61667 262.0 180.95 C 262.0 178.28333 261.26666 176.59999 259.8 175.9 C 258.33334 175.2 256.56668 175.68333 254.5 177.35 Z M 262.05 248.0 C 266.08334 243.23334 269.45 236.98334 272.15 229.25 C 274.65 222.01666 275.9 215.41666 275.9 209.45 C 275.93335 206.21667 275.55002 203.53334 274.75 201.4 C 273.91666 199.23332 272.71664 197.88333 271.15 197.35 C 268.18335 196.31667 264.68335 198.18333 260.65 202.95 C 256.61667 207.71667 253.25 213.96667 250.55 221.7 L 249.05 226.5 C 248.08334 230.0 247.40001 233.53334 247.0 237.1 C 246.56667 241.53334 246.73334 245.20001 247.5 248.1 C 248.3 251.1 249.65001 252.93333 251.55 253.6 C 254.51666 254.63333 258.01666 252.76666 262.05 248.0 Z M 257.8 265.35 C 257.8 265.08334 257.48334 264.85 256.85 264.65 L 254.55 264.4 L 252.25 264.65 C 251.61667 264.85 251.3 265.08334 251.3 265.35 C 251.3 265.61667 251.61667 265.83334 252.25 266.0 L 254.55 266.25 L 256.85 266.0 C 257.48334 265.83334 257.8 265.61667 257.8 265.35 Z M 171.55 244.3 C 169.55 253.7 169.38333 260.88333 171.05 265.85 C 172.21667 269.21667 174.23334 271.81668 177.1 273.65 C 179.7 275.25 183.76666 276.26666 189.3 276.7 C 194.33334 277.06668 199.90001 276.9167 206.0 276.25 C 213.2 275.48334 219.34999 274.2 224.45 272.4 C 222.55 272.26666 220.18333 271.78333 217.35 270.95 L 211.3 268.9 C 206.66667 267.13333 201.86667 264.93332 196.9 262.3 C 191.63333 259.46664 186.7 256.4 182.1 253.1 C 179.26668 251.0 177.05 249.26666 175.45 247.9 L 171.55 244.3 Z"/>
			<path fill="#BE574A" stroke-linecap="round" stroke-linejoin="round" d="M 15.3 243.8 L 27.4 235.3 C 25.333332 237.4 23.999998 239.95 23.4 242.95 C 22.833332 245.75 22.949999 248.63333 23.75 251.6 L 20.6 253.3 C 15.766666 255.56668 11.766666 258.2 8.6 261.2 C 5.4666667 264.16666 2.9499998 267.66666 1.05 271.7 C 0.54999995 269.2 0.76666665 266.21667 1.7 262.75 C 2.6333332 259.38333 4.0833335 256.18332 6.05 253.15 C 8.083334 249.98332 11.166668 246.86665 15.3 243.8 Z"/>
			<path fill="#535E67" stroke-linecap="round" stroke-linejoin="round" d="M 128.35 173.65 C 127.05 175.25 125.78333 177.43333 124.55 180.2 C 116.583336 175.7 107.78333 172.63333 98.15 171.0 C 98.71667 169.23334 99.88333 166.93333 101.65 164.1 C 103.583336 161.0 105.88334 157.78333 108.55 154.45 C 111.01667 151.38333 112.96667 149.26666 114.4 148.1 C 118.66667 158.36667 123.31667 166.88333 128.35 173.65 Z"/>
			<path fill="#BE574A" stroke-linecap="round" stroke-linejoin="round" d="M 215.05 191.05 C 214.01666 193.78333 212.61667 195.23332 210.85 195.4 C 209.05 195.56667 207.4 194.4 205.9 191.9 C 204.4 189.4 203.48332 186.3 203.15 182.6 C 202.81667 178.93333 203.16667 175.73334 204.2 173.0 C 205.23334 170.26666 206.63333 168.81667 208.4 168.65 C 210.2 168.51666 211.85 169.68333 213.35 172.15 C 214.85 174.65 215.76668 177.75 216.1 181.45 C 216.43333 185.11667 216.08333 188.31667 215.05 191.05 Z"/>
			<path fill="#BE574A" stroke-linecap="round" stroke-linejoin="round" d="M 249.2 198.1 C 247.73334 197.40001 247.0 195.71667 247.0 193.05 C 246.96666 190.38333 247.68332 187.51666 249.15 184.45 C 250.61667 181.38333 252.40001 179.01666 254.5 177.35 C 256.56668 175.68333 258.33334 175.2 259.8 175.9 C 261.26666 176.59999 262.0 178.28333 262.0 180.95 C 262.0 183.61667 261.26666 186.48334 259.8 189.55 C 258.33334 192.61667 256.56668 194.98334 254.5 196.65 C 252.43333 198.31667 250.66667 198.8 249.2 198.1 Z"/>
			<path fill="#02A9E0" stroke-linecap="round" stroke-linejoin="round" d="M 176.5 203.1 C 176.73334 200.7 176.66667 198.59999 176.3 196.8 C 175.93333 195.03333 175.38333 194.11665 174.65 194.05 C 173.91667 193.98334 173.23334 194.78334 172.6 196.45 C 171.93333 198.11667 171.48334 200.16667 171.25 202.6 C 171.01666 205.03334 171.08333 207.13333 171.45 208.9 C 171.78333 210.66667 172.31667 211.58334 173.05 211.65 C 173.78333 211.71666 174.48332 210.91666 175.15 209.25 C 175.81667 207.58333 176.26666 205.53333 176.5 203.1 Z M 165.35 202.15 C 165.95 197.91667 166.96666 193.98334 168.4 190.35 C 169.9 190.78334 171.91666 191.86667 174.45 193.6 C 177.05 195.36667 179.7 197.5 182.4 200.0 C 183.16667 210.53334 181.11667 218.25 176.25 223.15 C 174.28334 225.18333 172.31668 226.01666 170.35 225.65 C 168.28334 225.28334 166.73334 223.66667 165.7 220.8 C 164.53333 214.8 164.41666 208.58333 165.35 202.15 Z"/>
			<path fill="#BE574A" stroke-linecap="round" stroke-linejoin="round" d="M 182.4 200.0 C 179.7 197.5 177.05 195.36667 174.45 193.6 C 171.91666 191.86667 169.9 190.78334 168.4 190.35 C 170.5 185.11667 173.2 181.06667 176.5 178.2 C 179.8 175.33333 183.13333 174.13333 186.5 174.6 C 190.96666 175.23334 194.34999 178.83333 196.65 185.4 C 198.95 191.96666 199.5 199.58333 198.3 208.25 C 197.83334 211.58333 197.18335 214.68333 196.35 217.55 C 193.75 212.05 189.09999 206.2 182.4 200.0 Z"/>
			<path fill="#FFFFFF" stroke-linecap="round" stroke-linejoin="round" d="M 176.25 223.15 C 181.11667 218.25 183.16667 210.53334 182.4 200.0 C 189.09999 206.2 193.75 212.05 196.35 217.55 C 194.41667 224.15 191.81667 229.29999 188.55 233.0 C 185.08334 236.96666 181.33334 238.66666 177.3 238.1 C 174.6 237.7 172.20001 235.9 170.1 232.7 C 168.1 229.6 166.63333 225.63335 165.7 220.8 C 166.73334 223.66667 168.28334 225.28334 170.35 225.65 C 172.31667 226.01666 174.28333 225.18333 176.25 223.15 Z"/>
			<path fill="#BE574A" stroke-linecap="round" stroke-linejoin="round" d="M 271.15 197.35 C 272.71667 197.88333 273.9167 199.23332 274.75 201.4 C 275.55002 203.53334 275.93335 206.21667 275.9 209.45 C 273.76666 210.51666 270.55 212.36667 266.25 215.0 C 263.11667 216.93333 260.7 218.46667 259.0 219.6 L 254.55 222.55 L 249.05 226.5 L 250.55 221.7 C 253.25 213.96667 256.61667 207.71667 260.65 202.95 C 264.68335 198.18333 268.18335 196.31667 271.15 197.35 Z"/>
			<path fill="#02A9E0" stroke-linecap="round" stroke-linejoin="round" d="M 259.0 219.6 C 260.69998 218.46666 263.11664 216.93332 266.25 215.0 C 265.98334 221.56667 264.75 227.8 262.55 233.7 C 260.58334 238.9 258.2667 242.9 255.6 245.7 C 252.96666 248.4 250.81665 249.11667 249.15 247.85 C 247.34999 246.45 246.63333 242.86667 247.0 237.1 C 247.40001 233.53334 248.08334 230.0 249.05 226.5 L 254.55 222.55 C 253.15 225.78333 252.31667 228.74998 252.05 231.45 C 251.85 233.81667 252.11667 235.13333 252.85 235.4 C 253.51668 235.59999 254.35 235.0 255.35 233.6 C 256.31665 232.16667 257.18332 230.35 257.95 228.15 C 258.38333 226.78334 258.69998 225.20001 258.9 223.4 C 259.06665 221.8 259.09998 220.53334 259.0 219.6 Z"/>
			<path fill="#FFFFFF" stroke-linecap="round" stroke-linejoin="round" d="M 255.6 245.7 C 258.26666 242.9 260.5833 238.9 262.55 233.7 C 264.75 227.8 265.98334 221.56667 266.25 215.0 C 270.55002 212.36667 273.7667 210.51666 275.9 209.45 C 275.9 215.41666 274.65 222.01666 272.15 229.25 C 269.45 236.98334 266.08334 243.23334 262.05 248.0 C 258.01666 252.76666 254.51666 254.63333 251.55 253.6 C 249.65 252.93333 248.29999 251.1 247.5 248.1 C 246.73334 245.2 246.56667 241.53333 247.0 237.1 C 246.63333 242.86667 247.34999 246.45 249.15 247.85 C 250.81667 249.11667 252.96667 248.4 255.6 245.7 Z"/>
			<path fill="#FFFFFF" stroke-linecap="round" stroke-linejoin="round" d="M 254.55 222.55 L 259.0 219.6 C 259.1 220.53334 259.06668 221.8 258.9 223.4 C 258.7 225.2 258.38336 226.78333 257.95 228.15 C 257.18332 230.34999 256.31665 232.16666 255.35 233.6 C 254.35 235.0 253.51668 235.59999 252.85 235.4 C 252.11667 235.13333 251.85 233.81667 252.05 231.45 C 252.31667 228.75 253.15 225.78334 254.55 222.55 Z"/>
			<path fill="#FFFFFF" stroke-linecap="round" stroke-linejoin="round" d="M 171.25 202.6 C 171.48334 200.16667 171.93333 198.11667 172.6 196.45 C 173.23334 194.78333 173.91667 193.98332 174.65 194.05 C 175.38333 194.11667 175.93333 195.03334 176.3 196.8 C 176.66667 198.6 176.73334 200.70001 176.5 203.1 C 176.26666 205.53334 175.81667 207.58334 175.15 209.25 C 174.48332 210.91667 173.78333 211.71667 173.05 211.65 C 172.31667 211.58333 171.78333 210.66666 171.45 208.9 C 171.08333 207.13333 171.01666 205.03334 171.25 202.6 Z"/>
			<path fill="#231815" stroke-linecap="round" stroke-linejoin="round" d="M 252.25 264.65 L 254.55 264.4 L 256.85 264.65 C 257.48334 264.85 257.8 265.08334 257.8 265.35 C 257.8 265.61667 257.48334 265.83334 256.85 266.0 L 254.55 266.25 L 252.25 266.0 C 251.61667 265.83334 251.3 265.61667 251.3 265.35 C 251.3 265.08334 251.61667 264.85 252.25 264.65 Z"/>
			<path fill="#686168" stroke-linecap="round" stroke-linejoin="round" d="M 119.1 211.35 C 118.7 210.05 118.45 208.66667 118.35 207.2 L 120.9 208.95 C 122.933334 210.25 124.6 211.16667 125.9 211.7 L 120.65 211.4 L 119.1 211.35 Z"/>
			<path fill="#535E67" stroke-linecap="round" stroke-linejoin="round" d="M 82.8 202.3 C 82.433334 198.36667 82.45 194.05 82.85 189.35 L 83.45 183.85 C 83.816666 185.41667 84.433334 187.2 85.3 189.2 C 86.8 192.63333 88.78333 196.0 91.25 199.3 C 93.583336 202.5 95.566666 204.58333 97.2 205.55 C 96.5 203.35 95.9 200.78334 95.4 197.85 C 94.86667 194.88333 94.566666 192.25 94.5 189.95 C 94.433334 188.61667 94.450005 187.56667 94.55 186.8 C 97.98333 190.36667 101.95 194.06667 106.45 197.9 C 110.683334 201.5 114.65 204.6 118.35 207.2 C 118.45 208.66666 118.7 210.04999 119.1 211.35 L 108.3 211.95 C 104.86667 212.41666 103.083336 213.06665 102.95 213.9 C 102.78333 214.86667 104.5 216.53334 108.1 218.9 C 111.46667 221.16667 115.683334 223.38335 120.75 225.55 L 121.15 229.7 C 121.51666 232.66666 121.95 234.65 122.45 235.65 L 128.15 236.45 C 131.28334 236.91666 134.00002 237.49998 136.3 238.2 C 139.43333 239.13333 142.4 240.45 145.2 242.15 C 149.23334 244.61667 154.3 249.61667 160.4 257.15 C 165.63333 263.61667 170.73334 270.81668 175.7 278.75 L 180.35 286.45 C 177.71666 284.18332 174.09999 280.78333 169.5 276.25 C 164.83333 271.68332 162.16666 268.91666 161.5 267.95 C 160.76666 266.78336 159.73332 265.81668 158.4 265.05 C 147.9 254.91667 138.65 247.66667 130.65 243.3 C 123.18333 239.23334 117.23333 237.88333 112.8 239.25 C 112.200005 238.08333 111.950005 236.65 112.05 234.95 C 112.183334 232.71667 112.95 230.68335 114.35 228.85 C 109.95 230.28334 105.33333 233.81667 100.5 239.45 C 95.76667 244.95 93.183334 249.63333 92.75 253.5 C 91.816666 247.53334 93.0 241.93333 96.3 236.7 C 98.566666 233.06667 101.53333 230.01666 105.2 227.55 C 105.53333 227.41667 105.85 227.26668 106.15 227.1 C 106.88333 226.76668 107.53333 226.53334 108.1 226.4 C 101.46667 223.5 95.88333 219.71667 91.35 215.05 C 87.48334 211.11667 84.63334 206.86667 82.8 202.3 Z"/>
			<path fill="#231815" stroke-linecap="round" stroke-linejoin="round" d="M 248.15 67.75 C 245.84999 60.383335 242.61665 54.133335 238.45 49.0 L 238.25 48.5 L 238.4 48.05 C 238.66667 47.716667 238.96667 47.633335 239.3 47.8 C 243.4 49.233334 248.38333 52.783333 254.25 58.45 C 260.25 64.183334 265.01666 70.066666 268.55 76.1 C 266.75 69.83333 264.36667 64.36666 261.4 59.7 C 257.9 54.13333 253.56667 49.516663 248.4 45.85 C 244.43333 43.016666 240.15001 40.833332 235.55 39.3 C 224.88333 35.766666 216.88333 31.866667 211.55 27.6 C 204.28333 21.766666 200.65 14.549999 200.65 5.95 L 200.75 4.7 C 197.51666 11.533333 195.9 19.65 195.9 29.05 C 195.9 31.749998 196.06667 34.699997 196.4 37.9 C 197.06667 43.733334 198.26666 49.13333 200.0 54.1 L 200.05 54.35 C 200.05 54.75 199.86667 55.0 199.5 55.1 C 199.0 55.266666 198.66667 55.11667 198.5 54.65 C 196.73334 49.683334 195.51668 44.166668 194.85 38.1 C 194.18333 32.2 194.15 26.5 194.75 21.0 C 195.61667 13.066667 197.76666 6.2 201.2 0.4 C 201.43333 -2.9802322E-8 201.75 -0.1166667 202.15 0.05 C 202.55 0.15 202.71667 0.43333334 202.65 0.9 C 201.15 10.666667 204.0 18.75 211.2 25.15 C 216.43333 29.816668 224.71667 34.033333 236.05 37.8 C 240.81667 39.4 245.23334 41.65 249.3 44.55 C 254.66667 48.35 259.15 53.116665 262.75 58.85 C 265.91666 63.95 268.4 69.683334 270.2 76.05 L 267.4 77.2 C 264.36667 72.03333 260.26666 66.816666 255.1 61.55 C 250.1 56.45 245.56667 52.783333 241.5 50.55 C 245.2 55.783333 248.06667 61.916664 250.1 68.95 C 252.13333 75.98333 253.15 83.299995 253.15 90.9 L 252.7 99.35 C 251.96667 106.61667 250.28334 113.13334 247.65 118.9 C 245.05 124.7 241.75 129.21666 237.75 132.45 L 237.0 132.55 C 230.66667 130.45 224.41667 124.299995 218.25 114.1 C 212.08333 103.9 208.58333 93.98334 207.75 84.35 C 205.01666 86.916664 202.3 91.416664 199.6 97.85 C 196.43333 105.316666 194.85 112.26666 194.85 118.7 C 194.85 120.96667 195.08334 123.183334 195.55 125.35 L 195.6 125.55 C 195.6 125.98333 195.38333 126.23333 194.95 126.3 L 194.35 126.2 L 194.0 125.7 C 192.3 118.0 193.45 109.05 197.45 98.85 C 200.98334 89.78333 204.5 84.23333 208.0 82.2 L 208.75 82.15 C 209.01666 82.316666 209.15 82.53333 209.15 82.8 C 209.65 92.1 212.88333 101.86666 218.85 112.1 C 224.78334 122.33333 230.85 128.59999 237.05 130.9 C 240.81667 127.73333 243.91667 123.4 246.35 117.9 C 248.81667 112.36667 250.4 106.13333 251.1 99.2 L 251.55 90.85 C 251.55 82.78333 250.41667 75.083336 248.15 67.75 Z"/>
			<path fill="#231815" stroke-linecap="round" stroke-linejoin="round" d="M 176.1 27.0 C 178.26668 27.0 181.26668 27.933332 185.1 29.8 C 189.36667 31.9 193.05 34.45 196.15 37.45 C 196.55 37.85 196.56667 38.216663 196.2 38.55 L 195.05 38.6 C 192.58334 36.166668 189.63335 34.01667 186.2 32.15 C 183.16666 30.516668 180.45 29.416668 178.05 28.85 C 181.78333 33.016666 184.48332 37.63333 186.15 42.7 C 187.58333 47.066666 188.3 51.949997 188.3 57.35 C 188.3 60.45 188.06667 64.0 187.6 68.0 L 186.05 78.6 L 185.6 81.4 C 184.46666 88.73334 183.9 94.48334 183.9 98.65 C 183.9 104.01666 184.7 108.7 186.3 112.7 C 188.13333 117.299995 191.13333 121.38333 195.3 124.95 L 195.6 125.55 L 195.4 126.05 C 195.03334 126.48333 194.65001 126.51666 194.25 126.15 C 187.84999 120.683334 184.04999 113.85 182.85 105.65 C 181.98334 99.91667 182.38333 91.75001 184.05 81.15 L 184.5 78.35 C 186.36667 66.75 187.03334 58.11667 186.5 52.45 C 185.63333 42.983334 181.96666 34.95 175.5 28.35 C 175.23334 28.083334 175.18333 27.800001 175.35 27.5 C 175.45 27.166666 175.7 27.0 176.1 27.0 Z"/>
			<path fill="#231815" stroke-linecap="round" stroke-linejoin="round" d="M 192.4 147.05 C 192.03334 146.68333 192.01668 146.3 192.35 145.9 L 193.45 145.85 C 196.05 148.18333 199.01668 150.33333 202.35 152.3 C 202.75 152.56667 202.83333 152.93333 202.6 153.4 C 202.3 153.83333 201.93333 153.91666 201.5 153.65 C 198.2 151.65 195.16666 149.45 192.4 147.05 Z"/>
			<path fill="#231815" stroke-linecap="round" stroke-linejoin="round" d="M 179.0 91.3 C 180.33333 87.933334 182.04999 84.46667 184.15 80.9 L 184.6 80.55 L 185.2 80.6 C 185.63333 80.86667 185.73334 81.23334 185.5 81.7 C 183.5 85.066666 181.81667 88.46667 180.45 91.9 C 178.01666 98.03333 176.7 104.083336 176.5 110.05 C 176.33333 115.98333 177.28333 121.58333 179.35 126.85 L 179.35 127.45 L 178.9 127.9 L 178.3 127.9 L 177.85 127.45 C 175.71666 121.98333 174.73332 116.183334 174.9 110.05 C 175.09999 103.916664 176.46666 97.666664 179.0 91.3 Z"/>
			<path fill="#231815" stroke-linecap="round" stroke-linejoin="round" d="M 261.55 59.9 C 261.18332 59.533333 261.16666 59.149998 261.5 58.75 L 262.6 58.7 C 269.13333 64.26667 274.83334 71.083336 279.7 79.15 C 285.43332 88.683334 288.9833 98.5 290.35 108.6 C 292.35 123.2 289.41666 136.61667 281.55 148.85 L 276.65 155.45 L 276.15 155.75 L 275.55 155.55 L 275.25 155.05 L 275.45 154.45 L 280.2 148.0 C 287.9 136.09999 290.76666 123.033325 288.8 108.8 C 287.46664 98.933334 283.96664 89.316666 278.3 79.95 C 273.56668 72.083336 267.98334 65.4 261.55 59.9 Z"/>
			<path fill="#231815" stroke-linecap="round" stroke-linejoin="round" d="M 296.3 136.05 C 303.5 131.48334 309.18335 128.35 313.35 126.65 L 313.95 126.65 L 314.4 127.1 L 314.4 127.7 L 313.95 128.15 C 309.95 129.75 304.36667 132.83333 297.2 137.4 C 289.73334 142.09999 284.48334 145.95 281.45 148.95 C 281.08334 149.35 280.7 149.35 280.3 148.95 L 280.1 148.4 L 280.3 147.85 C 283.5 144.71666 288.83334 140.78333 296.3 136.05 Z"/>
			<path fill="#231815" stroke-linecap="round" stroke-linejoin="round" d="M 301.9 156.1 C 308.6 143.23334 312.25 133.65 312.85 127.35 C 312.9167 126.85 313.21667 126.6 313.75 126.6 L 314.25 126.9 L 314.45 127.5 C 313.81668 133.93333 310.1 143.68333 303.3 156.75 C 296.5 169.81667 290.36667 178.98334 284.9 184.25 L 284.35 184.45 L 283.8 184.2 L 283.6 183.65 L 283.8 183.1 C 289.16666 177.93333 295.19998 168.93333 301.9 156.1 Z"/>
			<path fill="#231815" stroke-linecap="round" stroke-linejoin="round" d="M 319.75 89.55 C 332.44998 83.183334 339.86664 80.816666 342.0 82.45 C 343.43332 83.683334 344.15 86.35 344.15 90.45 C 344.15 96.316666 342.86667 104.15 340.3 113.95 C 337.36667 125.11666 333.30002 136.65 328.1 148.55 C 322.03333 162.38333 315.18332 174.8 307.55 185.8 C 299.88333 196.8 291.93335 205.7 283.7 212.5 L 283.15 212.7 C 282.95 212.66666 282.7667 212.56665 282.6 212.4 L 282.4 211.8 L 282.7 211.3 C 290.86667 204.56667 298.71667 195.75 306.25 184.85 C 313.81668 173.95 320.61667 161.63333 326.65 147.9 C 331.81665 136.09999 335.84998 124.68333 338.75 113.65 C 341.31668 103.91667 342.58334 96.183334 342.55 90.45 C 342.55 86.88333 342.03333 84.63333 341.0 83.7 C 339.53333 82.566666 332.9 84.916664 321.1 90.75 C 308.96667 96.78333 298.61667 102.98333 290.05 109.35 L 289.45 109.5 L 288.95 109.15 C 288.65 108.71667 288.69998 108.35 289.1 108.05 C 297.6 101.71667 307.81668 95.55 319.75 89.55 Z"/>
			<path fill="#231815" stroke-linecap="round" stroke-linejoin="round" d="M 292.75 226.05 C 298.15 227.28333 302.8 228.59999 306.7 230.0 C 309.36667 230.96666 311.21667 231.81667 312.25 232.55 C 313.01666 233.11667 313.4 233.68333 313.4 234.25 C 313.4 234.95 312.8 235.63333 311.6 236.3 C 309.46667 237.5 305.28333 239.0 299.05 240.8 C 292.75 242.66667 286.36667 244.28334 279.9 245.65 C 282.6 246.11667 284.80002 246.73334 286.5 247.5 C 288.46667 248.36667 289.45 249.3 289.45 250.3 C 289.45 251.73334 285.61667 253.56667 277.95 255.8 C 271.05002 257.8 265.1667 259.06665 260.3 259.6 C 259.76666 259.6667 259.46667 259.43335 259.4 258.9 L 259.4 258.8 C 259.4 258.3 259.63333 258.05 260.1 258.05 C 265.26666 257.48334 271.0833 256.21667 277.55 254.25 C 283.51666 252.45 286.93332 251.09999 287.8 250.2 C 287.56668 249.6 286.30002 248.93333 284.0 248.2 C 281.26666 247.33333 278.19998 246.8 274.8 246.6 L 274.3 246.4 L 274.05 245.85 C 274.05 245.38333 274.26666 245.11667 274.7 245.05 L 285.25 242.8 L 298.65 239.3 C 306.45 237.0 310.83334 235.3 311.8 234.2 C 311.23334 233.5 309.35 232.58333 306.15 231.45 C 302.31665 230.08333 297.7333 228.8 292.4 227.6 C 287.06665 226.40001 282.88333 225.70001 279.85 225.5 C 279.35 225.43333 279.1 225.16667 279.1 224.7 C 279.13333 224.43333 279.23334 224.23334 279.4 224.1 C 279.56665 223.93333 279.75 223.86667 279.95 223.9 C 283.08334 224.09999 287.35 224.81667 292.75 226.05 Z M 279.1 224.7 L 279.15 224.65 Z M 274.05 245.85 L 274.05 245.8 Z"/>
			<path fill="#231815" stroke-linecap="round" stroke-linejoin="round" d="M 217.6 270.15 C 220.26668 270.95 222.56668 271.45 224.5 271.65 C 225.0 271.65 225.25 271.93332 225.25 272.5 L 224.95 273.0 L 224.35 273.2 C 222.31667 273.0 219.91666 272.5 217.15 271.7 L 211.0 269.6 C 206.06667 267.73334 201.05 265.41666 195.95 262.65 C 190.81667 259.85 186.05 256.86667 181.65 253.7 L 174.95 248.5 L 171.0 244.85 L 170.05 243.95 L 169.85 243.4 L 170.05 242.85 C 170.41667 242.45 170.8 242.45 171.2 242.85 L 172.1 243.75 L 176.0 247.3 L 182.55 252.45 C 186.91667 255.58333 191.63333 258.51666 196.7 261.25 C 201.76666 264.01666 206.73334 266.31665 211.6 268.15 C 213.53334 268.88333 215.53334 269.55 217.6 270.15 Z"/>
			<path fill="#231815" stroke-linecap="round" stroke-linejoin="round" d="M 205.9 275.45 C 213.13333 274.65 219.23334 273.38333 224.2 271.65 L 224.8 271.7 L 225.2 272.15 C 225.36667 272.61667 225.2 272.95 224.7 273.15 C 219.76666 274.88333 213.56667 276.18332 206.1 277.05 C 199.40001 277.78333 193.45001 277.9 188.25 277.4 C 183.08333 276.93335 179.23332 275.90002 176.7 274.3 C 172.4 271.6 169.93333 267.18335 169.3 261.05 C 168.83334 256.71667 169.31668 251.08334 170.75 244.15 C 170.84999 243.65 171.16666 243.43333 171.7 243.5 C 171.9 243.56667 172.06667 243.68333 172.2 243.85 L 172.3 244.45 C 170.9 251.25 170.4 256.7 170.8 260.8 C 171.36667 266.46664 173.61667 270.53333 177.55 273.0 C 179.88333 274.46667 183.58333 275.4167 188.65 275.85 C 193.75 276.28333 199.5 276.15 205.9 275.45 Z"/>
			<path fill="#231815" stroke-linecap="round" stroke-linejoin="round" d="M 83.85 172.3 C 83.85 171.76666 83.95 171.29999 84.15 170.9 C 84.61667 169.96666 86.36667 169.48332 89.4 169.45 L 98.25 170.2 C 108.183334 171.93333 117.3 175.16667 125.6 179.9 L 126.0 180.35 L 125.9 180.95 L 125.45 181.35 L 124.8 181.25 C 116.53333 176.55 107.6 173.40001 98.0 171.8 L 89.1 171.0 C 87.066666 171.06667 85.9 171.28333 85.6 171.65 C 85.5 171.81667 85.45 172.05 85.45 172.35 C 85.45 174.98334 88.666664 179.61667 95.1 186.25 C 98.7 189.95 102.816666 193.76666 107.45 197.7 C 112.15 201.66666 116.4 204.93332 120.2 207.5 L 121.35 208.3 L 126.2 210.95 C 126.53333 211.05 126.7 211.3 126.7 211.7 L 126.7 211.85 C 126.6 212.28334 126.316666 212.5 125.85 212.5 L 120.6 212.15 L 108.75 212.65 C 105.71667 213.05 104.05 213.51668 103.75 214.05 C 103.88333 214.95 105.76666 216.53333 109.4 218.8 C 113.53333 221.4 118.299995 223.76666 123.7 225.9 C 124.03333 226.03334 124.2 226.28334 124.2 226.65 L 124.15 226.95 C 123.98334 227.41666 123.65 227.56665 123.15 227.4 C 117.71667 225.26666 112.88333 222.86667 108.65 220.2 C 104.11667 217.33333 101.96667 215.2 102.2 213.8 C 102.433334 212.3 105.200005 211.31667 110.5 210.85 C 113.700005 210.55 117.083336 210.46667 120.65 210.6 L 122.15 210.65 L 119.3 208.8 C 115.433334 206.16667 111.15 202.86667 106.45 198.9 C 101.683334 194.9 97.51667 191.05 93.95 187.35 C 87.21667 180.35 83.85 175.33334 83.85 172.3 Z"/>
			<path fill="#231815" stroke-linecap="round" stroke-linejoin="round" d="M 111.55 261.15 C 107.950005 257.41666 106.333336 252.48332 106.7 246.35 L 107.0 245.85 C 107.166664 245.68333 107.35 245.61667 107.55 245.65 C 107.78333 245.65 107.96667 245.73332 108.1 245.9 L 108.3 246.45 C 107.933334 252.11667 109.4 256.6667 112.7 260.1 C 116.299995 263.86667 121.76666 265.66666 129.1 265.5 C 129.63333 265.5 129.9 265.76666 129.9 266.3 C 129.9 266.83334 129.63333 267.1 129.1 267.1 C 121.333336 267.26666 115.48334 265.28333 111.55 261.15 Z"/>
			<path fill="#231815" stroke-linecap="round" stroke-linejoin="round" d="M 82.7 183.75 C 82.76667 183.34999 83.00001 183.11665 83.4 183.05 C 83.86667 183.05 84.15 183.26666 84.25 183.7 C 84.61667 185.3 85.21667 187.03334 86.05 188.9 C 87.55 192.3 89.5 195.63333 91.9 198.9 C 94.16667 201.96666 96.06667 203.95 97.6 204.85 C 98.066666 205.15001 98.166664 205.51668 97.9 205.95 L 97.45 206.3 L 96.8 206.2 C 95.066666 205.16666 92.96667 202.98332 90.5 199.65 C 88.066666 196.31667 86.1 192.95 84.6 189.55 L 83.8 187.6 L 83.6 189.4 C 83.4 191.86667 83.3 194.2 83.3 196.4 C 83.3 214.93333 90.63334 225.05 105.3 226.75 C 105.666664 226.81667 105.88333 227.01666 105.95 227.35 L 106.0 227.55 C 106.0 227.81667 105.88333 228.03333 105.65 228.2 C 102.78333 230.13333 100.299995 232.48334 98.2 235.25 C 94.86666 239.68333 93.2 244.48334 93.2 249.65 C 93.2 252.11667 93.61666 254.71667 94.45 257.45 C 95.38333 260.38333 96.85 263.43332 98.85 266.6 C 98.916664 264.56665 99.11666 262.68332 99.45 260.95 C 100.049995 257.81668 100.95 254.93335 102.15 252.3 C 103.583336 249.2 105.21667 247.01666 107.05 245.75 C 107.51667 245.48334 107.88334 245.56667 108.15 246.0 L 108.3 246.6 L 107.95 247.1 C 106.28333 248.2 104.8 250.2 103.5 253.1 C 102.4 255.53334 101.566666 258.25 101.0 261.25 C 100.333336 264.98334 100.23334 267.7 100.7 269.4 C 100.833336 269.8333 100.683334 270.1333 100.25 270.3 C 99.85 270.46664 99.51666 270.3833 99.25 270.05 C 96.316666 265.98334 94.21667 261.93335 92.95 257.9 C 92.083336 255.16667 91.65 252.40001 91.65 249.6 C 91.65 244.7 93.05 240.11667 95.85 235.85 C 97.78333 232.91667 100.23333 230.3 103.2 228.0 C 96.13333 226.76666 90.799995 223.46666 87.2 218.1 C 83.566666 212.7 81.75 205.38333 81.75 196.15 C 81.75 193.98332 81.85 191.7 82.05 189.3 C 82.21667 187.26666 82.433334 185.41666 82.7 183.75 Z"/>
			<path fill="#231815" stroke-linecap="round" stroke-linejoin="round" d="M 93.7 190.0 C 93.63333 188.59999 93.65 187.49998 93.75 186.7 L 94.05 186.2 C 94.21667 186.03333 94.4 185.96666 94.6 186.0 C 95.13333 186.06667 95.36667 186.35 95.3 186.85 L 95.25 189.9 C 95.35 192.26666 95.65 194.9 96.15 197.8 C 96.683334 200.7 97.28333 203.2 97.95 205.3 C 98.15 205.8 97.98334 206.13333 97.45 206.3 L 96.85 206.25 L 96.45 205.8 C 95.75 203.63333 95.15 201.05 94.65 198.05 C 94.11667 195.08334 93.8 192.40001 93.7 190.0 Z"/>
			<path fill="#231815" stroke-linecap="round" stroke-linejoin="round" d="M 121.9 226.8 C 121.8 226.4 122.0 226.09999 122.5 225.9 C 123.03333 225.73332 123.38333 225.9 123.55 226.4 C 123.916664 227.56667 124.6 229.1 125.6 231.0 C 126.76666 233.26666 127.816666 234.91666 128.75 235.95 L 128.95 236.5 L 128.65 237.05 L 127.55 236.95 C 126.35 235.75 125.166664 234.01666 124.0 231.75 C 122.96667 229.81667 122.26667 228.16667 121.9 226.8 Z"/>
			<path fill="#231815" stroke-linecap="round" stroke-linejoin="round" d="M 127.5 236.95 L 127.4 236.35 C 127.46667 235.81667 127.75 235.58333 128.25 235.65 C 131.48334 236.11667 134.26668 236.71667 136.6 237.45 C 139.76668 238.41666 142.78334 239.76666 145.65 241.5 C 149.78334 244.0 154.96667 249.11667 161.2 256.85 C 166.3 263.21667 171.36667 270.36667 176.4 278.3 C 176.66667 278.73334 176.58334 279.1 176.15 279.4 C 175.68333 279.63333 175.31667 279.55 175.05 279.15 C 170.08334 271.35 165.06668 264.28336 160.0 257.95 C 153.86667 250.31667 148.8 245.28333 144.8 242.85 C 142.06667 241.18333 139.16667 239.88333 136.1 238.95 C 133.83333 238.28333 131.15 237.71666 128.05 237.25 C 127.816666 237.21666 127.63333 237.11665 127.5 236.95 Z"/>
			<path fill="#231815" stroke-linecap="round" stroke-linejoin="round" d="M 94.4 258.05 C 94.13333 258.48334 93.76666 258.58334 93.3 258.35 L 88.2 255.45 C 84.76667 253.78333 81.583336 252.54999 78.65 251.75 L 78.2 251.4 L 78.1 250.8 C 78.23334 250.26666 78.56667 250.06667 79.1 250.2 C 82.13333 251.06667 85.4 252.35 88.9 254.05 L 92.3 255.95 L 94.1 256.95 C 94.53333 257.25 94.63333 257.61667 94.4 258.05 Z"/>
			<path fill="#231815" stroke-linecap="round" stroke-linejoin="round" d="M 148.25 263.75 C 142.34999 263.71667 136.04999 264.81668 129.35 267.05 C 128.85 267.25 128.51668 267.08334 128.35 266.55 C 128.28334 266.35 128.3 266.15002 128.4 265.95 C 128.5 265.75 128.65001 265.61667 128.85 265.55 C 135.38333 263.35 141.66666 262.23334 147.7 262.2 C 155.13333 262.13333 159.95 263.91666 162.15 267.55 C 164.75 271.88333 165.11667 279.85 163.25 291.45 L 160.0 307.15 C 159.5 309.38333 158.8 313.66666 157.9 320.0 C 157.16667 325.66666 156.5 329.5833 155.9 331.75 C 155.0 335.15 153.73334 337.28333 152.1 338.15 C 149.23334 339.71667 145.8 339.63333 141.8 337.9 C 137.53333 336.03333 134.11665 332.8333 131.55 328.3 C 129.25 324.26666 127.38333 318.91666 125.95 312.25 C 125.15 308.58334 124.26667 303.1 123.3 295.8 L 122.7 291.25 L 121.9 286.85 C 121.23334 284.28333 119.933334 281.63333 118.0 278.9 C 116.1 276.2 113.5 273.28336 110.2 270.15 C 106.9 267.05 103.433334 264.25 99.8 261.75 L 99.5 261.25 C 99.433334 261.01666 99.46667 260.81665 99.6 260.65 L 100.1 260.35 L 100.7 260.45 C 104.4 262.98334 107.933334 265.83334 111.3 269.0 C 114.666664 272.19998 117.33333 275.19998 119.3 278.0 C 121.26667 280.80002 122.65 283.6167 123.45 286.45 L 124.3 291.05 L 124.9 295.6 C 125.8 302.6667 126.66667 308.08334 127.5 311.85 C 128.90001 318.35 130.70001 323.56668 132.9 327.5 C 135.36667 331.9 138.6 334.91666 142.6 336.55 C 146.06667 337.98334 148.98334 338.05002 151.35 336.75 C 152.65001 336.05002 153.71667 334.0167 154.55 330.65 C 155.01666 328.68335 155.61667 325.06668 156.35 319.8 C 157.05 314.26666 157.75 309.93332 158.45 306.8 L 161.7 291.2 C 163.5 279.96667 163.2 272.36667 160.8 268.4 C 158.96667 265.36667 154.78334 263.81668 148.25 263.75 Z"/>
			<path fill="#231815" stroke-linecap="round" stroke-linejoin="round" d="M 122.9 291.7 C 122.566666 291.36667 122.58333 291.0 122.95 290.6 C 125.98333 287.6667 130.0 285.45 135.0 283.95 C 140.0 282.48334 144.81667 282.06668 149.45 282.7 C 155.95 283.56668 160.51666 286.31668 163.15 290.95 L 163.25 291.55 L 162.85 292.0 L 162.25 292.1 L 161.8 291.7 C 159.36667 287.53336 155.18333 285.05002 149.25 284.25 C 144.81667 283.61667 140.23334 284.01666 135.5 285.45 C 130.73334 286.85 126.91667 288.95 124.05 291.75 L 122.9 291.7 Z"/>
			<path fill="#231815" stroke-linecap="round" stroke-linejoin="round" d="M 89.0 254.1 L 89.35 254.55 L 90.55 259.7 C 90.61667 260.2 90.4 260.5 89.9 260.6 L 89.3 260.5 L 89.0 260.0 L 87.8 254.95 C 87.73333 254.75 87.76666 254.55 87.9 254.35 C 88.0 254.18333 88.166664 254.06667 88.4 254.0 L 89.0 254.1 Z"/>
			<path fill="#231815" stroke-linecap="round" stroke-linejoin="round" d="M 89.05 259.45 L 89.5 259.1 L 90.1 259.15 C 90.566666 259.38333 90.683334 259.73334 90.45 260.2 C 89.21667 262.6 88.833336 265.9 89.3 270.1 C 89.8 274.76666 91.3 278.61667 93.8 281.65 C 94.1 282.0833 94.066666 282.44998 93.7 282.75 C 93.299995 283.11667 92.916664 283.08334 92.55 282.65 C 89.88334 279.38333 88.28334 275.21667 87.75 270.15 C 87.28333 265.61667 87.71667 262.05002 89.05 259.45 Z"/>
			<path fill="#231815" stroke-linecap="round" stroke-linejoin="round" d="M 82.85 259.2 C 85.85 257.86667 87.75 256.85 88.55 256.15 C 88.950005 255.81667 89.31667 255.85 89.65 256.25 C 90.01666 256.61667 89.99999 256.98334 89.6 257.35 C 88.7 258.15 86.666664 259.25 83.5 260.65 C 79.833336 262.31665 77.25 263.66666 75.75 264.7 C 73.21667 266.5 71.98334 268.38333 72.05 270.35 C 72.15 272.68335 74.2 274.90002 78.2 277.0 C 82.2 279.06668 87.23333 280.53336 93.3 281.4 C 98.63334 282.13333 103.53334 282.18332 108.0 281.55 C 112.433334 280.91666 115.816666 279.68332 118.15 277.85 C 118.316666 277.71667 118.51666 277.65 118.75 277.65 L 119.25 277.95 L 119.45 278.55 L 119.15 279.05 C 116.61667 281.08334 113.05 282.43335 108.45 283.1 C 103.85 283.8 98.71667 283.75 93.05 282.95 C 87.11667 282.11667 82.05 280.65 77.85 278.55 C 73.08333 276.15 70.63333 273.45 70.5 270.45 C 70.4 268.01666 71.73334 265.76666 74.5 263.7 C 76.066666 262.53336 78.85 261.03336 82.85 259.2 Z"/>
			<path fill="#231815" stroke-linecap="round" stroke-linejoin="round" d="M 226.8 296.35 L 227.2 295.95 C 227.4 295.85 227.59999 295.85 227.8 295.95 L 228.25 296.35 C 229.58333 299.58334 230.79999 303.6667 231.9 308.6 C 233.03334 313.56665 233.88335 318.69998 234.45 324.0 C 235.31667 331.93332 235.5 339.2333 235.0 345.9 C 234.26666 355.5 232.11667 362.93335 228.55 368.2 C 226.25 371.0 223.7 372.19998 220.9 371.8 C 219.06667 371.56668 217.3 370.6 215.6 368.9 C 213.93333 367.2 212.51666 364.95 211.35 362.15 C 208.25 354.68335 203.33333 344.73334 196.6 332.3 C 189.76668 319.69998 183.88335 309.91666 178.95 302.95 C 178.65 302.48334 178.71666 302.11667 179.15 301.85 C 179.58333 301.55 179.95 301.59998 180.25 302.0 C 185.38333 309.36667 191.28333 319.21667 197.95 331.55 C 204.51666 343.65 209.46666 353.63333 212.8 361.5 C 213.86667 364.06668 215.13333 366.1 216.6 367.6 C 218.06667 369.13333 219.58333 370.01666 221.15 370.25 C 223.38333 370.55002 225.41667 369.55002 227.25 367.25 C 230.08333 363.08334 232.0 357.23334 233.0 349.7 C 234.0 342.2 233.96666 333.68335 232.9 324.15 C 232.33333 318.91666 231.5 313.86667 230.4 309.0 C 229.3 304.13333 228.1 300.11667 226.8 296.95 C 226.7 296.75 226.7 296.55 226.8 296.35 Z"/>
			<path fill="#231815" stroke-linecap="round" stroke-linejoin="round" d="M 224.2 320.2 C 221.66666 319.66666 219.04999 319.65 216.35 320.15 C 212.61667 320.78333 209.05 322.23334 205.65 324.5 C 202.21666 326.76666 199.65 329.38333 197.95 332.35 L 197.5 332.7 L 196.9 332.6 L 196.5 332.15 C 196.43333 331.91666 196.46667 331.71664 196.6 331.55 C 198.43333 328.35 201.13333 325.55002 204.7 323.15 C 208.26666 320.75 212.05 319.21667 216.05 318.55 C 223.01666 317.38333 229.06667 319.03333 234.2 323.5 C 234.6 323.83334 234.61667 324.2 234.25 324.6 L 233.15 324.65 C 230.48332 322.35 227.49998 320.86667 224.2 320.2 Z"/>
			<path fill="#231815" stroke-linecap="round" stroke-linejoin="round" d="M 254.6 257.25 C 254.53334 257.01666 254.56667 256.81665 254.7 256.65 C 255.0 256.21667 255.36667 256.13333 255.8 256.4 L 259.7 259.2 C 263.53336 262.26666 265.1 264.73334 264.4 266.6 C 263.6 268.73334 260.2 270.9 254.2 273.1 C 248.3 275.26666 240.95 277.0833 232.15 278.55 C 211.28334 282.01666 192.43335 282.33334 175.6 279.5 C 175.36667 279.46667 175.18333 279.36667 175.05 279.2 L 174.95 278.6 C 174.98334 278.36667 175.08334 278.18332 175.25 278.05 L 175.85 277.95 C 183.85 279.28336 192.76668 279.8667 202.6 279.7 C 212.40001 279.53336 222.23334 278.6167 232.1 276.95 C 241.0 275.45 248.34999 273.61667 254.15 271.45 C 259.38333 269.48334 262.3 267.68332 262.9 266.05 C 263.36667 264.91666 261.98334 263.05 258.75 260.45 L 254.95 257.75 L 254.6 257.25 Z"/>
			<path fill="#231815" stroke-linecap="round" stroke-linejoin="round" d="M 225.55 285.0 C 233.41667 285.46667 241.73334 284.81668 250.5 283.05 C 250.86667 282.94998 251.16667 283.09998 251.4 283.5 C 251.56667 283.86667 251.48334 284.18335 251.15 284.45 C 244.51666 289.78336 236.73334 294.1 227.8 297.4 C 220.03333 300.3 211.93332 302.25 203.5 303.25 C 195.09999 304.28333 187.09999 304.28333 179.5 303.25 C 172.23334 302.28333 166.08334 300.44998 161.05 297.75 L 160.7 297.3 C 160.63333 297.06668 160.65 296.8667 160.75 296.7 C 160.98334 296.23334 161.33334 296.11667 161.8 296.35 C 166.66667 298.98334 172.63333 300.76666 179.7 301.7 C 187.16666 302.7 195.04999 302.7 203.35 301.7 C 211.65001 300.66666 219.61667 298.7333 227.25 295.9 C 234.55 293.2 241.28334 289.63336 247.45 285.2 C 239.85 286.5 232.51668 286.94998 225.45 286.55 C 224.95 286.55 224.7 286.28333 224.7 285.75 C 224.76666 285.18332 225.05 284.93332 225.55 285.0 Z"/>
			<path fill="#231815" stroke-linecap="round" stroke-linejoin="round" d="M 301.1 192.25 L 301.15 191.95 C 301.31665 191.48334 301.65 191.33334 302.15 191.5 C 307.48334 193.5 314.31668 197.33333 322.65 203.0 C 332.75 209.83333 339.98334 216.23332 344.35 222.2 C 344.55 222.46667 344.56665 222.76668 344.4 223.1 C 344.16666 223.40001 343.9 223.51668 343.6 223.45 C 336.56665 222.25 329.44998 222.56667 322.25 224.4 C 316.28333 225.96666 311.16666 228.28333 306.9 231.35 C 306.46667 231.65001 306.1 231.6 305.8 231.2 C 305.5 230.76666 305.55002 230.4 305.95 230.1 C 310.15 227.1 315.16666 224.78334 321.0 223.15 C 328.0 221.21666 334.96667 220.71666 341.9 221.65 C 337.36667 216.01666 330.33334 210.01666 320.8 203.65 C 312.8 198.31667 306.4 194.76666 301.6 193.0 C 301.26666 192.83333 301.1 192.58333 301.1 192.25 Z"/>
			<path fill="#231815" stroke-linecap="round" stroke-linejoin="round" d="M 298.15 239.65 C 298.41666 239.21666 298.78333 239.11667 299.25 239.35 C 299.68332 239.65001 299.78333 240.01668 299.55 240.45 C 291.51666 254.21667 282.53333 264.5 272.6 271.3 C 260.53333 279.63333 244.84999 284.71667 225.55 286.55 C 225.05 286.61667 224.76666 286.38333 224.7 285.85 C 224.66666 285.65 224.73332 285.46664 224.9 285.3 C 225.03334 285.13333 225.20001 285.03333 225.4 285.0 C 244.4 283.16666 259.83334 278.16666 271.7 270.0 C 281.43332 263.30002 290.24997 253.18335 298.15 239.65 Z"/>
			<path fill="#231815" stroke-linecap="round" stroke-linejoin="round" d="M 85.3 190.0 C 84.76667 190.0 84.5 189.73334 84.5 189.2 C 84.5 188.7 84.76667 188.45 85.3 188.45 L 90.8 188.7 L 94.65 189.2 L 95.15 189.5 L 95.25 190.1 C 95.15 190.6 94.833336 190.8 94.3 190.7 L 90.7 190.25 L 85.3 190.0 Z"/>
			<path fill="#231815" stroke-linecap="round" stroke-linejoin="round" d="M 73.15 190.85 C 75.55 189.78334 78.75 189.01668 82.75 188.55 C 83.25 188.48334 83.53333 188.71667 83.6 189.25 C 83.666664 189.78334 83.433334 190.08334 82.9 190.15 L 78.05 191.0 C 76.21667 191.43333 74.816666 191.86667 73.85 192.3 C 70.45 193.86667 66.899994 196.18333 63.2 199.25 C 59.533333 202.31667 55.316666 206.45 50.55 211.65 C 46.016666 216.58333 40.783333 222.84999 34.85 230.45 C 34.516666 230.85 34.133335 230.90001 33.7 230.6 C 33.333336 230.23334 33.300003 229.86667 33.6 229.5 C 39.133335 222.33333 44.383335 216.01666 49.35 210.55 C 54.18333 205.28333 58.48333 201.08333 62.25 197.95 C 66.01667 194.85 69.65 192.48334 73.15 190.85 Z"/>
			<path fill="#231815" stroke-linecap="round" stroke-linejoin="round" d="M 39.0 265.2 C 47.800003 262.80002 54.4 260.83334 58.8 259.3 C 66.63333 256.56665 73.183334 253.56665 78.45 250.3 C 78.916664 250.06667 79.28333 250.15 79.55 250.55 C 79.816666 250.98334 79.73333 251.35 79.3 251.65 C 73.933334 254.98332 67.3 258.01666 59.4 260.75 C 54.866665 262.31668 48.216663 264.30002 39.45 266.7 L 38.6 266.95 L 26.35 270.4 C 22.183334 271.7 18.85 272.95 16.35 274.15 C 12.65 276.0833 9.533333 277.11664 7.0 277.25 C 4.4333334 277.41666 2.6166668 276.69998 1.55 275.1 C -0.083333254 272.6 -0.43333325 269.06668 0.5 264.5 C 1.3333334 260.4 2.9666667 256.46667 5.4 252.7 C 7.0666666 250.13333 9.283333 247.68333 12.05 245.35 C 13.75 243.91667 16.566666 241.86667 20.5 239.2 L 26.9 234.7 C 29.533333 232.8 31.8 231.01668 33.7 229.35 C 34.166668 229.01668 34.533333 229.05 34.8 229.45 L 35.0 230.05 L 34.7 230.55 L 27.85 235.95 L 21.4 240.5 C 17.566666 243.09999 14.816666 245.09999 13.15 246.5 C 10.45 248.76666 8.299999 251.11667 6.7 253.55 C 4.2666664 257.31668 2.683333 261.18335 1.95 265.15 C 1.2166667 269.15 1.5166667 272.18332 2.85 274.25 C 3.65 275.41666 5.1833334 275.86667 7.45 275.6 C 9.683333 275.36667 12.416667 274.41666 15.65 272.75 C 18.216667 271.51666 21.616667 270.23334 25.85 268.9 L 38.15 265.4 L 39.0 265.2 Z"/>
			<path fill="#231815" stroke-linecap="round" stroke-linejoin="round" d="M 22.6 243.0 C 23.233334 239.76666 24.65 237.01666 26.85 234.75 L 27.4 234.55 L 27.95 234.75 C 28.316668 235.11667 28.316668 235.5 27.95 235.9 C 25.983334 237.9 24.716667 240.38333 24.15 243.35 C 23.583332 246.31667 23.8 249.33333 24.8 252.4 C 25.966665 255.83333 27.849998 258.68335 30.45 260.95 C 33.05 263.25 36.016666 264.65 39.35 265.15 C 39.916668 265.28333 40.133335 265.5833 40.0 266.05 C 39.933334 266.58334 39.633335 266.81668 39.1 266.75 C 35.466667 266.18332 32.233334 264.65 29.4 262.15 C 26.6 259.68335 24.566668 256.6 23.3 252.9 C 22.199999 249.53334 21.966665 246.23334 22.6 243.0 Z"/>
			<path fill="#231815" stroke-linecap="round" stroke-linejoin="round" d="M 61.75 131.45 C 54.883335 125.583336 50.51667 123.03334 48.65 123.8 L 48.25 124.7 C 47.883335 126.03333 47.783337 128.2 47.95 131.2 C 48.11667 134.16666 48.533337 137.45 49.2 141.05 C 49.266666 141.51666 49.05 141.81667 48.55 141.95 C 48.016666 142.01666 47.7 141.8 47.6 141.3 C 46.93333 137.6 46.516663 134.20001 46.35 131.1 C 46.18333 128.03334 46.3 125.76667 46.7 124.3 C 46.933334 123.333336 47.36667 122.700005 48.0 122.4 C 50.600002 121.3 55.65 124.03334 63.15 130.6 C 68.71667 135.46666 73.05 139.83333 76.15 143.7 C 83.25 144.86667 89.26666 147.36667 94.2 151.2 C 99.166664 155.0 101.916664 159.26666 102.45 164.0 L 102.45 164.1 C 102.45 164.56667 102.21667 164.83333 101.75 164.9 L 101.15 164.7 L 100.85 164.2 C 100.35 159.86667 97.7 155.88333 92.9 152.25 C 88.066666 148.61667 82.299995 146.26666 75.6 145.2 L 75.1 144.9 C 72.13333 141.06667 67.683334 136.58333 61.75 131.45 Z"/>
			<path fill="#231815" stroke-linecap="round" stroke-linejoin="round" d="M 26.1 119.0 C 27.5 112.9 28.933332 108.76667 30.4 106.6 C 31.2 105.433334 32.016666 104.85 32.85 104.85 C 35.05 104.78333 38.15 107.7 42.15 113.6 C 45.416668 118.433334 47.433334 121.98334 48.2 124.25 C 48.4 124.816666 48.233334 125.15 47.7 125.25 C 47.2 125.450005 46.86667 125.28334 46.7 124.75 C 45.933334 122.450005 43.916668 118.933334 40.65 114.2 C 37.016666 109.0 34.433334 106.416664 32.9 106.45 C 32.56667 106.45 32.166668 106.799995 31.7 107.5 C 30.233334 109.63333 28.833334 113.683334 27.5 119.65 C 26.1 125.91667 25.116667 132.85 24.55 140.45 C 23.05 159.58333 24.516666 175.31667 28.95 187.65 C 30.883333 193.05 33.683334 197.70001 37.35 201.6 C 41.016666 205.5 45.316666 208.41667 50.25 210.35 C 50.716667 210.51668 50.86667 210.86667 50.7 211.4 L 50.25 211.85 L 49.65 211.85 C 44.483334 209.81667 40.0 206.76666 36.2 202.7 C 32.36667 198.63333 29.450003 193.8 27.45 188.2 C 22.983334 175.7 21.516666 159.7 23.05 140.2 C 23.683332 132.46667 24.699999 125.40001 26.1 119.0 Z"/>
			<path fill="#231815" stroke-linecap="round" stroke-linejoin="round" d="M 125.3 84.25 C 132.6 87.450005 141.6 94.100006 152.3 104.2 C 162.43333 113.799995 168.45 120.95 170.35 125.65 C 170.45 126.01666 170.36667 126.33333 170.1 126.6 C 166.5 129.29999 162.41667 132.93332 157.85 137.5 C 152.45 142.8 148.09999 147.76666 144.8 152.4 C 144.5 152.8 144.13333 152.85 143.7 152.55 C 143.46667 152.38333 143.35 152.18333 143.35 151.95 L 143.5 151.45 C 146.73334 146.91666 151.01668 141.99998 156.35 136.7 C 160.78334 132.26666 164.86667 128.59999 168.6 125.7 C 166.36667 121.03333 160.51666 114.2 151.05 105.2 C 140.75 95.4 131.95 88.9 124.65 85.7 C 124.35 85.6 124.2 85.36667 124.2 85.0 L 124.25 84.65 C 124.48333 84.21667 124.83333 84.083336 125.3 84.25 Z"/>
			<path fill="#231815" stroke-linecap="round" stroke-linejoin="round" d="M 129.2 113.75 C 133.03333 128.84999 138.23332 141.43332 144.8 151.5 L 144.95 152.1 L 144.6 152.6 C 144.2 152.90001 143.83333 152.81668 143.5 152.35 C 136.83333 142.15001 131.54999 129.36667 127.65 114.0 C 124.183334 100.36667 123.03333 90.65 124.2 84.85 C 124.299995 84.35 124.61666 84.13333 125.15 84.2 C 125.65 84.333336 125.85 84.65 125.75 85.15 C 124.61667 90.78333 125.76667 100.316666 129.2 113.75 Z"/>
			<path fill="#231815" stroke-linecap="round" stroke-linejoin="round" d="M 107.9 154.0 C 110.433334 150.86667 112.433334 148.68333 113.9 147.45 L 115.0 147.55 C 115.36667 147.95 115.333336 148.33333 114.9 148.7 C 113.5 149.83333 111.55 151.95 109.05 155.05 C 106.450005 158.28333 104.200005 161.43332 102.3 164.5 C 100.6 167.26666 99.46667 169.51666 98.9 171.25 C 98.7 171.75 98.35 171.91667 97.85 171.75 C 97.38333 171.58333 97.23333 171.25 97.4 170.75 C 98.066666 168.84999 99.25 166.48332 100.95 163.65 C 102.916664 160.55 105.23333 157.33334 107.9 154.0 Z"/>
			<path fill="#231815" stroke-linecap="round" stroke-linejoin="round" d="M 123.85 179.7 C 125.08333 177.03333 126.33333 174.84999 127.6 173.15 C 127.9 172.75 128.28334 172.68333 128.75 172.95 L 129.15 173.45 L 129.05 174.05 C 128.11667 175.15 126.88333 177.31667 125.35 180.55 C 125.183334 180.85 124.86667 180.91667 124.4 180.75 C 123.86667 180.48334 123.683334 180.13333 123.85 179.7 Z"/>
			<path fill="#231815" stroke-linecap="round" stroke-linejoin="round" d="M 104.25 37.45 C 108.78333 35.516666 121.45 42.316666 142.25 57.85 C 150.41667 63.983334 158.18333 70.26666 165.55 76.7 C 172.85 83.066666 177.78334 87.86667 180.35 91.1 C 180.65001 91.53333 180.61667 91.9 180.25 92.2 C 179.84999 92.566666 179.46666 92.53333 179.1 92.1 C 176.56667 88.9 171.63333 84.11667 164.3 77.75 C 157.0 71.416664 149.31667 65.21667 141.25 59.15 C 131.85 52.116665 123.90001 46.8 117.4 43.2 C 110.9 39.566666 106.73334 38.13333 104.9 38.9 C 101.53333 40.366665 99.76666 48.93333 99.6 64.6 C 99.433334 80.933334 101.21667 97.8 104.95 115.2 C 107.316666 126.3 110.7 137.15001 115.1 147.75 C 119.4 158.01666 124.03333 166.48332 129.0 173.15 C 129.3 173.58333 129.25 173.95 128.85 174.25 L 128.25 174.4 C 128.05 174.36667 127.88334 174.26668 127.75 174.1 C 122.71667 167.36667 118.01667 158.8 113.65 148.4 C 109.25 137.8 105.833336 126.850006 103.4 115.55 C 99.63333 97.95 97.83333 80.96666 98.0 64.6 C 98.200005 48.23333 100.28334 39.18333 104.25 37.45 Z"/>
			<path fill="#231815" stroke-linecap="round" stroke-linejoin="round" d="M 174.7 247.75 L 175.0 247.25 L 175.6 247.1 C 176.03334 247.16667 176.25 247.43333 176.25 247.9 L 176.25 248.0 C 175.84999 250.8 175.65 253.11667 175.65 254.95 C 175.65 255.65 175.7 256.15 175.8 256.45 C 176.9 256.15 178.83333 254.81665 181.6 252.45 L 182.7 252.55 C 183.03333 253.01666 183.0 253.38333 182.6 253.65 C 178.40001 257.25 175.8 258.63333 174.8 257.8 C 173.86667 257.1 173.83333 253.75002 174.7 247.75 Z"/>
			<path fill="#231815" stroke-linecap="round" stroke-linejoin="round" d="M 211.3 268.1 C 211.83334 268.1 212.1 268.36667 212.1 268.9 L 212.05 271.0 L 212.15 273.35 L 216.9 270.3 C 217.33333 270.0 217.7 270.05002 218.0 270.45 C 218.3 270.88333 218.25 271.25 217.85 271.55 C 215.41667 273.35 213.66667 274.46667 212.6 274.9 C 212.0 275.13333 211.53333 275.13333 211.2 274.9 C 210.63333 274.56665 210.38333 272.93332 210.45 270.0 L 210.5 268.85 C 210.5 268.61667 210.58333 268.43332 210.75 268.3 C 210.91667 268.13333 211.1 268.06668 211.3 268.1 Z"/>
			<path fill="#231815" stroke-linecap="round" stroke-linejoin="round" d="M 210.85 170.35 C 210.05 169.71666 209.26666 169.41666 208.5 169.45 C 207.7 169.55 206.96666 169.98334 206.3 170.75 C 205.36667 171.91667 204.68333 173.56667 204.25 175.7 C 203.81667 177.83333 203.71666 180.11667 203.95 182.55 C 204.25 185.95 205.08333 188.83333 206.45 191.2 C 207.78333 193.6 209.21666 194.73334 210.75 194.6 C 212.31667 194.46666 213.55 193.09999 214.45 190.5 C 215.35 187.90001 215.63335 184.90001 215.3 181.5 C 215.06667 179.06667 214.55 176.83333 213.75 174.8 C 212.95 172.8 211.98334 171.31667 210.85 170.35 Z M 205.1 169.75 C 206.06667 168.61667 207.15 168.0 208.35 167.9 C 209.58333 167.8 210.75 168.21667 211.85 169.15 C 213.15001 170.21666 214.25 171.84999 215.15 174.05 C 216.08333 176.25 216.66666 178.68333 216.9 181.35 C 217.26666 185.35 216.86667 188.76668 215.7 191.6 C 214.53333 194.46666 212.93332 195.98332 210.9 196.15 C 208.86667 196.34999 207.03334 195.15 205.4 192.55 C 203.73332 189.95 202.71666 186.66666 202.35 182.7 C 202.11667 180.0 202.23334 177.5 202.7 175.2 C 203.2 172.86667 204.0 171.05 205.1 169.75 Z"/>
			<path fill="#231815" stroke-linecap="round" stroke-linejoin="round" d="M 259.45 176.65 C 258.85 176.34999 258.11667 176.34999 257.25 176.65 C 255.98334 177.11667 254.68333 178.08334 253.35 179.55 C 251.98334 181.01666 250.83333 182.76666 249.9 184.8 C 248.93333 186.86667 248.28334 188.88333 247.95 190.85 C 247.65 192.81667 247.71666 194.41666 248.15 195.65 C 248.45 196.51666 248.91667 197.09999 249.55 197.4 L 251.75 197.35 C 253.01666 196.91667 254.31667 195.95 255.65 194.45 C 256.98334 192.98334 258.13333 191.23334 259.1 189.2 C 260.5 186.23334 261.2 183.5 261.2 181.0 C 261.2 178.66667 260.61667 177.21667 259.45 176.65 Z M 248.45 184.15 C 249.51666 181.88333 250.8 179.95 252.3 178.35 C 253.76666 176.75 255.23334 175.68333 256.7 175.15 C 257.93332 174.71666 259.06665 174.73332 260.1 175.2 C 261.8 176.0 262.69998 177.81667 262.8 180.65 C 262.86667 183.48332 262.1 186.56665 260.5 189.9 C 259.46667 192.13333 258.2 194.05 256.7 195.65 C 255.23334 197.25 253.75 198.31667 252.25 198.85 C 250.98334 199.31667 249.85 199.3 248.85 198.8 C 247.85 198.33334 247.11667 197.46667 246.65 196.2 C 246.15 194.7 246.05 192.88333 246.35 190.75 C 246.68333 188.55 247.38333 186.35 248.45 184.15 Z"/>
			<path fill="#231815" stroke-linecap="round" stroke-linejoin="round" d="M 186.4 175.4 C 183.26666 174.96666 180.09999 176.15 176.9 178.95 C 173.73332 181.75 171.15 185.65 169.15 190.65 C 167.75 194.11667 166.73334 197.98334 166.1 202.25 C 165.23334 208.68333 165.35 214.81667 166.45 220.65 C 167.38333 225.45 168.83333 229.35 170.8 232.35 C 172.76666 235.31667 174.98332 236.96666 177.45 237.3 C 181.11667 237.83334 184.56667 236.31668 187.8 232.75 C 191.03333 229.15001 193.61665 224.01668 195.55 217.35 C 196.38333 214.48334 197.03333 211.41667 197.5 208.15 C 198.33333 202.34999 198.33333 196.9 197.5 191.8 C 196.63333 186.66667 195.06667 182.6 192.8 179.6 C 190.96667 177.16667 188.83334 175.76666 186.4 175.4 Z M 164.55 202.05 C 165.15 197.81667 166.18332 193.81667 167.65 190.05 C 169.81667 184.61667 172.63333 180.43333 176.1 177.5 C 179.53334 174.56667 183.03334 173.35 186.6 173.85 C 189.40001 174.18333 191.88335 175.78333 194.05 178.65 C 196.45 181.81667 198.09999 186.06667 199.0 191.4 C 199.90001 196.73332 199.91667 202.4 199.05 208.4 C 198.58334 211.7 197.93335 214.81667 197.1 217.75 C 195.06667 224.84999 192.26666 230.29999 188.7 234.1 C 185.13333 237.86667 181.3 239.46666 177.2 238.9 C 174.33333 238.5 171.81667 236.71667 169.65 233.55 C 167.48332 230.38333 165.9 226.18333 164.9 220.95 C 163.76666 214.75 163.65 208.45 164.55 202.05 Z"/>
			<path fill="#231815" stroke-linecap="round" stroke-linejoin="round" d="M 168.2 191.15 C 167.66666 190.98332 167.48332 190.65 167.65 190.15 L 168.0 189.7 L 168.6 189.6 C 170.16667 190.03334 172.26666 191.15001 174.9 192.95 C 177.46666 194.71667 180.15 196.88335 182.95 199.45 C 189.58333 205.45 194.28333 211.36667 197.05 217.2 L 197.1 217.8 L 196.65 218.25 L 196.05 218.3 L 195.6 217.9 C 192.96666 212.36667 188.38333 206.6 181.85 200.6 C 179.18333 198.16667 176.61667 196.08334 174.15 194.35 C 171.61667 192.61667 169.63333 191.55 168.2 191.15 Z"/>
			<path fill="#231815" stroke-linecap="round" stroke-linejoin="round" d="M 181.6 200.05 C 181.6 199.55 181.85 199.26666 182.35 199.2 C 182.85 199.2 183.13333 199.45 183.2 199.95 C 183.7 206.91666 182.78333 212.99998 180.45 218.2 C 178.28333 222.96667 175.59999 225.70001 172.4 226.4 C 170.8 226.76666 169.33334 226.46666 168.0 225.5 C 166.7 224.56667 165.68333 223.1 164.95 221.1 C 164.78333 220.56667 164.95 220.21666 165.45 220.05 L 166.05 220.1 C 166.25 220.2 166.38333 220.34999 166.45 220.55 C 167.05 222.18333 167.83334 223.38333 168.8 224.15 C 169.76666 224.88333 170.84999 225.11667 172.05 224.85 C 174.71667 224.28334 177.01668 221.95001 178.95 217.85 C 181.25 212.98334 182.13333 207.05 181.6 200.05 Z"/>
			<path fill="#231815" stroke-linecap="round" stroke-linejoin="round" d="M 251.8 252.85 C 254.53333 253.78334 257.8333 251.90001 261.7 247.2 C 265.56668 242.46667 268.80002 236.40001 271.4 229.0 C 273.8333 221.96666 275.0833 215.45 275.15 209.45 C 275.15 206.31667 274.78333 203.76666 274.05 201.8 C 273.31668 199.8 272.2667 198.56667 270.9 198.1 C 268.16666 197.16667 264.86667 199.05 261.0 203.75 C 257.1 208.48334 253.86667 214.55 251.3 221.95 L 249.8 226.75 C 248.76666 230.48334 248.09999 233.96667 247.8 237.2 C 247.36667 241.46667 247.51666 244.98334 248.25 247.75 C 248.95 250.55 250.13333 252.25 251.8 252.85 Z M 271.4 196.6 C 273.13333 197.2 274.45 198.59999 275.35 200.8 C 276.28333 203.03333 276.73334 205.91666 276.7 209.45 C 276.7 215.51666 275.43335 222.2 272.9 229.5 C 270.06665 237.59999 266.56665 244.04999 262.4 248.85 C 258.23334 253.65 254.53334 255.48332 251.3 254.35 C 249.23334 253.61667 247.75 251.71666 246.85 248.65 C 245.95 245.58333 245.73332 241.71666 246.2 237.05 C 246.56667 233.55 247.26666 229.96667 248.3 226.3 L 249.8 221.45 C 252.63333 213.35 256.13333 206.90001 260.3 202.1 C 264.46664 197.3 268.16666 195.46667 271.4 196.6 Z"/>
			<path fill="#231815" stroke-linecap="round" stroke-linejoin="round" d="M 265.85 214.3 C 270.48334 211.5 273.71667 209.65 275.55 208.75 L 276.2 208.7 L 276.65 209.1 C 276.81665 209.56667 276.69998 209.91666 276.3 210.15 C 274.1 211.21666 270.88333 213.04999 266.65 215.65 L 249.5 227.15 C 249.09999 227.45 248.73332 227.4 248.4 227.0 C 248.09999 226.56667 248.15 226.2 248.55 225.9 C 249.65 225.03334 251.5 223.70001 254.1 221.9 L 265.85 214.3 Z"/>
			<path fill="#231815" stroke-linecap="round" stroke-linejoin="round" d="M 260.5 236.45 C 263.46667 229.88333 265.11667 222.71666 265.45 214.95 C 265.51666 214.45 265.8 214.2 266.3 214.2 C 266.8 214.2 267.05 214.48334 267.05 215.05 C 266.71664 222.78333 265.0833 229.99998 262.15 236.7 C 259.38333 242.96667 256.38333 246.93335 253.15 248.6 C 251.48332 249.43333 250.06665 249.45 248.9 248.65 C 246.7 247.18333 245.8 243.31667 246.2 237.05 C 246.26666 236.55 246.55 236.3 247.05 236.3 C 247.55 236.36667 247.8 236.65 247.8 237.15 C 247.6 240.48332 247.76668 243.08333 248.3 244.95 C 248.66667 246.11667 249.15001 246.90001 249.75 247.3 L 252.4 247.2 C 255.2 245.76666 257.9 242.18333 260.5 236.45 Z"/>
			<path fill="#231815" stroke-linecap="round" stroke-linejoin="round" d="M 175.7 203.0 C 175.9 201.09999 175.88333 199.36665 175.65 197.8 C 175.45 196.43333 175.15 195.5 174.75 195.0 L 174.6 194.85 L 174.4 194.95 C 173.9 195.35 173.43333 196.21667 173.0 197.55 C 172.53334 199.05 172.21667 200.76666 172.05 202.7 C 171.81667 205.13333 171.88333 207.18333 172.25 208.85 C 172.51666 210.18333 172.81667 210.85 173.15 210.85 C 173.45 210.88333 173.86667 210.28333 174.4 209.05 C 175.03334 207.45 175.46667 205.43333 175.7 203.0 Z M 171.5 197.0 C 172.03334 195.40001 172.65001 194.31668 173.35 193.75 C 173.75 193.41667 174.21666 193.25 174.75 193.25 C 175.25 193.31667 175.66667 193.56667 176.0 194.0 C 176.56667 194.66667 176.96666 195.85 177.2 197.55 C 177.43333 199.18333 177.46667 201.05 177.3 203.15 C 177.06667 205.75 176.58333 207.90001 175.85 209.6 C 175.05 211.6 174.1 212.55 173.0 212.45 C 171.90001 212.35 171.13335 211.25 170.7 209.15 C 170.3 207.31667 170.21667 205.11667 170.45 202.55 C 170.61667 200.45 170.96667 198.59999 171.5 197.0 Z"/>
			<path fill="#231815" stroke-linecap="round" stroke-linejoin="round" d="M 258.2 219.6 C 258.2 219.13333 258.4167 218.86667 258.85 218.8 C 259.38333 218.73334 259.68332 218.96667 259.75 219.5 C 259.91666 220.46666 259.9 221.81667 259.7 223.55 C 259.5 225.35 259.16666 226.96667 258.7 228.4 C 258.06668 230.3 257.31668 231.95001 256.45 233.35 C 255.58333 234.71666 254.76666 235.59999 254.0 236.0 L 252.6 236.15 C 252.2 236.01666 251.86667 235.66667 251.6 235.1 C 251.13333 234.06667 251.08333 232.43333 251.45 230.2 C 251.81667 227.7 252.6 225.05 253.8 222.25 C 254.03333 221.75 254.38333 221.61667 254.85 221.85 C 255.15001 221.95 255.3 222.18333 255.3 222.55 L 255.25 222.9 C 253.61667 226.66667 252.8 229.93333 252.8 232.7 C 252.8 233.8 252.91667 234.43333 253.15 234.6 C 253.51666 234.6 254.06667 234.05 254.8 232.95 C 255.7 231.58333 256.5 229.9 257.2 227.9 C 257.9 225.76666 258.25 223.43333 258.25 220.9 L 258.2 219.6 Z"/>
			<path fill="#231815" stroke-linecap="round" stroke-linejoin="round" d="M 275.35 155.3 C 275.11667 154.83334 275.23334 154.48334 275.7 154.25 C 276.13333 154.01666 276.48334 154.13333 276.75 154.6 C 281.18332 163.7 283.9833 173.34999 285.15 183.55 C 286.18335 192.88333 285.80002 202.38333 284.0 212.05 C 283.13333 216.51666 282.01666 220.81667 280.65 224.95 C 278.48334 231.61667 275.68335 237.91667 272.25 243.85 C 268.81668 249.78334 264.98334 254.95001 260.75 259.35 L 259.85 260.35 L 260.0 259.8 L 259.75 259.25 L 259.2 259.05 L 258.65 259.25 L 259.65 258.25 C 263.78333 253.91667 267.53333 248.85 270.9 243.05 C 274.26666 237.21667 277.01666 231.01668 279.15 224.45 C 280.45 220.41666 281.55002 216.18332 282.45 211.75 C 284.21667 202.25 284.6 192.91667 283.6 183.75 C 282.43335 173.65001 279.68335 164.16667 275.35 155.3 Z"/>
			<path fill="#231815" stroke-linecap="round" stroke-linejoin="round" d="M 209.1 272.1 L 210.55 269.65 C 210.78333 269.18335 211.13333 269.06668 211.6 269.3 L 212.0 269.75 L 211.95 270.35 L 210.35 273.1 C 209.05 274.96667 207.71667 276.25 206.35 276.95 L 205.75 277.0 L 205.3 276.6 C 205.06667 276.13333 205.18333 275.78333 205.65 275.55 C 206.78334 274.94998 207.93335 273.8 209.1 272.1 Z"/>
			<path fill="#231815" stroke-linecap="round" stroke-linejoin="round" d="M 256.8 265.35 L 254.55 265.05 L 252.3 265.35 L 254.55 265.6 L 256.8 265.35 Z M 254.55 266.9 C 251.95 266.9 250.65 266.38333 250.65 265.35 C 250.65 264.28333 251.95 263.75 254.55 263.75 C 257.15002 263.75 258.45 264.28333 258.45 265.35 C 258.45 266.38333 257.15002 266.9 254.55 266.9 Z"/>
			<path fill="#231815" stroke-linecap="round" stroke-linejoin="round" d="M 200.0 54.1 C 201.90001 59.8 204.05 64.05 206.45 66.85 C 203.11667 64.583336 200.46667 60.51667 198.5 54.65 L 200.0 54.1 Z"/>
			<path fill="#231815" stroke-linecap="round" stroke-linejoin="round" d="M 195.55 125.35 L 196.25 128.25 C 196.65001 129.84999 196.96667 130.93332 197.2 131.5 C 196.6 131.0 195.88335 129.78333 195.05 127.85 C 194.35 126.15 193.91667 124.85 193.75 123.95 L 195.55 125.35 Z"/>
			<path fill="#231815" stroke-linecap="round" stroke-linejoin="round" d="M 179.35 126.85 C 180.21666 128.91666 181.36665 130.98332 182.8 133.05 C 184.26666 135.15 185.61667 136.65 186.85 137.55 C 182.95 135.81667 179.95 132.45 177.85 127.45 L 179.35 126.85 Z"/>
			<path fill="#231815" stroke-linecap="round" stroke-linejoin="round" d="M 202.35 152.3 L 210.45 157.15 C 209.05 156.88333 207.40001 156.36667 205.5 155.6 C 203.86667 154.93333 202.53334 154.28333 201.5 153.65 L 202.35 152.3 Z"/>
			<path fill="#231815" stroke-linecap="round" stroke-linejoin="round" d="M 265.85 163.6 C 269.21667 160.90001 272.4167 157.85 275.45 154.45 L 276.8 155.3 C 275.56668 156.73334 273.98334 158.21667 272.05 159.75 C 269.81668 161.51666 267.75003 162.8 265.85 163.6 Z"/>
			<path fill="#231815" stroke-linecap="round" stroke-linejoin="round" d="M 313.35 126.65 C 314.81665 126.11667 315.91666 125.816666 316.65 125.75 C 315.71667 126.78333 314.55002 127.65 313.15 128.35 L 313.35 126.65 Z"/>
			<path fill="#231815" stroke-linecap="round" stroke-linejoin="round" d="M 244.35 251.2 C 249.15001 252.86667 252.96667 254.6 255.8 256.4 L 254.95 257.75 L 244.35 251.2 Z"/>
			<path fill="#231815" stroke-linecap="round" stroke-linejoin="round" d="M 224.5 271.65 L 227.4 271.7 L 229.95 271.3 C 228.98334 272.26666 226.93333 272.93332 223.8 273.3 L 224.5 271.65 Z"/>
			<path fill="#231815" stroke-linecap="round" stroke-linejoin="round" d="M 180.55 287.9 L 175.05 279.15 L 176.3 278.45 L 178.45 282.3 C 179.51666 284.4 180.21666 286.26666 180.55 287.9 Z"/>
			<path fill="#231815" stroke-linecap="round" stroke-linejoin="round" d="M 123.35 268.85 C 125.15 267.21667 126.61667 266.21667 127.75 265.85 L 129.35 267.05 L 123.35 268.85 Z"/>
			<path fill="#231815" stroke-linecap="round" stroke-linejoin="round" d="M 122.25 287.2 C 122.21667 286.6 122.35 285.65 122.65 284.35 L 123.55 281.4 L 123.65 285.8 L 124.0 289.65 L 122.25 287.2 Z"/>
			<path fill="#231815" stroke-linecap="round" stroke-linejoin="round" d="M 90.55 259.7 L 91.05 262.05 L 91.55 264.8 C 90.88334 263.93332 90.083336 262.41666 89.15 260.25 L 90.55 259.7 Z"/>
			<path fill="#231815" stroke-linecap="round" stroke-linejoin="round" d="M 78.45 250.3 L 87.9 243.9 C 87.03333 245.13333 85.6 246.6 83.6 248.3 C 81.8 249.86667 80.38334 250.93333 79.35 251.5 L 78.45 250.3 Z"/>
			<path fill="#231815" stroke-linecap="round" stroke-linejoin="round" d="M 27.4 238.25 L 33.2 230.05 L 34.85 230.45 C 31.949999 234.01666 29.466665 236.61667 27.4 238.25 Z"/>
			<path fill="#231815" stroke-linecap="round" stroke-linejoin="round" d="M 97.1 206.7 C 96.33333 205.53333 95.86666 204.63333 95.7 204.0 L 97.95 205.3 L 99.1 209.05 C 98.566666 208.78333 97.9 207.99998 97.1 206.7 Z"/>
			<path fill="#231815" stroke-linecap="round" stroke-linejoin="round" d="M 49.2 141.05 L 50.65 148.2 L 52.25 154.35 C 50.283333 151.55 48.733334 147.2 47.6 141.3 L 49.2 141.05 Z"/>
			<path fill="#231815" stroke-linecap="round" stroke-linejoin="round" d="M 129.0 173.15 L 130.8 175.55 C 130.4 175.65 129.79999 175.45 129.0 174.95 L 127.7 173.9 L 129.0 173.15 Z"/>
			<path fill="#231815" stroke-linecap="round" stroke-linejoin="round" d="M 125.6 179.9 L 130.45 183.15 C 133.11667 185.08333 134.86667 186.63333 135.7 187.8 L 124.8 181.25 L 125.6 179.9 Z"/>
			<path fill="#231815" stroke-linecap="round" stroke-linejoin="round" d="M 142.45 153.85 L 143.8 151.15 L 144.8 152.4 L 141.55 156.7 C 141.65 156.06667 141.95 155.11667 142.45 153.85 Z"/>
			<path fill="#231815" stroke-linecap="round" stroke-linejoin="round" d="M 121.45 82.9 C 122.65 83.13333 123.933334 83.58333 125.3 84.25 L 125.45 85.95 C 124.35 85.316666 123.01666 84.3 121.45 82.9 Z"/>
			<path fill="#231815" stroke-linecap="round" stroke-linejoin="round" d="M 123.7 225.9 L 134.9 229.95 C 129.43333 229.18333 125.56667 228.33333 123.3 227.4 L 123.7 225.9 Z"/>
			<path fill="#231815" stroke-linecap="round" stroke-linejoin="round" d="M 124.5 235.5 L 127.75 235.7 L 128.05 237.25 C 124.950005 236.75 122.66667 236.21666 121.2 235.65 L 124.5 235.5 Z"/>
			<path fill="#231815" stroke-linecap="round" stroke-linejoin="round" d="M 106.7 247.6 C 106.76667 246.0 107.100006 244.13333 107.7 242.0 C 108.433334 239.36667 109.333336 237.33333 110.4 235.9 C 110.03333 236.7 109.61667 238.31667 109.15 240.75 C 108.75 242.88333 108.46667 244.78333 108.3 246.45 L 106.7 247.6 Z"/>
			<path fill="#231815" stroke-linecap="round" stroke-linejoin="round" d="M 105.3 226.75 L 107.45 226.55 L 108.95 226.05 C 108.61666 226.68333 108.01666 227.23334 107.15 227.7 C 106.28333 228.16666 105.36667 228.41666 104.4 228.45 L 105.3 226.75 Z"/>
			<path fill="#231815" stroke-linecap="round" stroke-linejoin="round" d="M 213.5 283.6 C 217.16667 284.76666 221.18333 285.23334 225.55 285.0 L 225.55 286.55 L 219.55 285.85 C 217.05 285.31665 215.03334 284.56665 213.5 283.6 Z"/>
			<path fill="#231815" stroke-linecap="round" stroke-linejoin="round" d="M 270.6 83.65 C 269.53333 81.183334 268.46664 79.03333 267.4 77.2 L 270.2 76.05 C 270.9 78.75 271.03333 81.28333 270.6 83.65 Z"/>
			<path fill="#231815" stroke-linecap="round" stroke-linejoin="round" d="M 117.7 208.8 L 117.55 207.35 L 119.15 207.25 L 119.25 208.5 C 119.38333 209.46666 119.58333 210.26666 119.85 210.9 L 118.4 211.5 C 118.1 210.73334 117.86666 209.83334 117.7 208.8 Z"/>
		</g>
	</g>
</svg>
